<svg xmlns="http://www.w3.org/2000/svg" viewBox="0 0 1994.07 1734.95"><title>DSX-Sticker-DS-Logo</title><polygon points="109.97 962.78 343.33 962.78 283.96 904.67 113.17 904.67 109.97 962.78" style="fill-rule:evenodd"/><polygon points="118.68 1238.14 352.05 1238.14 293.88 1181.21 214.72 1180.81 214.05 1180.03 121.88 1180.03 118.68 1238.14" style="fill:red;fill-rule:evenodd"/><polygon points="1993.63 907.57 1720.75 907.57 1771.99 948.22 1994.07 948.22 1993.63 907.57" style="fill:#fff;fill-rule:evenodd"/><path d="M1650.53,1443.4c-113.85-48.24-196.76-.5-254.11,71.35-.87,1.09-1.72,2.18-2.57,3.26l-123.6.73-2.46,21.12,110.67-.65c-62.5,93-52.37,174.67-55.87,240.33-11.06,24-53.49,31.4-79.33,34.17s-28.63-14.79-33.21-30.48c-2-6.89-10.69-28.41-12.49-50.23-1.72-20.81-26.09-16-25.77,1.85.71,38.55,0,82.19-5.22,92.66-11.07,22.14-49.21,26.66-75,25.08S1065,1833,1060.45,1816.5c-2.27-8.15-4.84-43.52-6.76-68.33-1.48-18.91-25.56-19.15-27-.2-1.91,24.51-4.44,59.23-6.71,67.3-4.61,16.48-7.37,34.5-33.21,36.09s-68.27-2.94-79.33-25.08c-5-10.07-5.83-51.17-5.27-88.27.31-21-26-28.48-28-4.73-1.8,21.3-4,42-6,48.72-4.6,15.69-7.38,33.24-33.22,30.48s-68.26-10.17-79.33-34.18c-5.85-43.53,12.73-154.07-64.57-255-58.19-76-145.66-129.67-263.21-79.87a800.38,800.38,0,0,1-93.12-141.16l-.21-25.36-12.38-.1a800.11,800.11,0,0,1-1.75-677.73H504.17l-.94-92.84H371.41c140.53-219.7,385.65-366.09,665.08-369v-.08l2.7,0c.9,0,1.8,0,2.7,0v.08c220.48,2.26,419.57,93.9,562.81,240.36h-91.14L1563,405.35h67.54C1756.11,546.44,1832.41,732.3,1832.41,936A795.54,795.54,0,0,1,1650.53,1443.4Z" transform="translate(-10.36 -137.17)" style="fill:red;fill-rule:evenodd"/><path d="M1609.15,1462.64c-106-44.93-185.22-6.61-241.92,56.91l-118.11.7-2.46,21.11,103.11-.61c-76.51,100.31-64.84,188.23-68.56,258-11.06,24-53.49,31.41-79.33,34.18s-28.63-14.79-33.21-30.48c-2-6.89-10.69-28.41-12.49-50.24-1.72-20.8-26.08-16-25.76,1.86.7,38.54,0,82.19-5.23,92.66-11.06,22.14-49.21,26.66-75,25.07s-26.49-19.62-31.07-36.08c-2.27-8.16-4.84-43.53-6.76-68.33-1.48-18.91-25.56-19.15-27-.2-1.91,24.51-4.44,59.22-6.71,67.3-4.61,16.48-7.37,34.5-33.21,36.08s-68.27-2.94-79.33-25.07c-5-10.07-5.83-51.17-5.27-88.27.31-21-26-28.48-28-4.73-1.8,21.3-4,42-6,48.71-4.6,15.7-7.38,33.25-33.22,30.49s-68.26-10.17-79.33-34.18c-5.84-43.53,12.73-154.07-64.57-255-58.19-76-145.66-129.67-263.21-79.87a799.5,799.5,0,0,1-94.74-144.33l43.13.22-.34-41.65-62.71-.48a800.16,800.16,0,0,1,15.73-675.84H483l-.94-92.85H341.73c142.19-209.8,381.54-348.43,653.38-351.22v-.09l2.7,0c.9,0,1.81,0,2.71,0v.09c211.45,2.17,403.24,86.53,545,222.63h-.63l24.82,24.28C1706.77,546.82,1791,741.18,1791,955.22A795.54,795.54,0,0,1,1609.15,1462.64Z" transform="translate(-10.36 -137.17)" style="fill-rule:evenodd"/><path d="M1629.33,1448.16c-113.85-48.25-196.76-.51-254.11,71.34h0l-126.1.75-2.46,21.11,112.83-.66c-65,94.31-54.56,177.16-58.1,243.59-11.06,24-53.49,31.4-79.33,34.17s-28.63-14.79-33.21-30.48c-2-6.88-10.69-28.41-12.49-50.23-1.72-20.8-26.09-16-25.76,1.85.7,38.55,0,82.19-5.23,92.67-11.06,22.14-49.21,26.66-75,25.07s-26.49-19.63-31.07-36.08c-2.27-8.16-4.84-43.53-6.76-68.33-1.48-18.92-25.56-19.15-27-.21-1.91,24.51-4.44,59.23-6.71,67.3-4.61,16.48-7.37,34.5-33.21,36.09s-68.27-2.94-79.33-25.08c-5-10.06-5.83-51.17-5.27-88.27.32-21-26-28.48-28-4.73-1.8,21.3-4,42-6,48.72-4.6,15.7-7.38,33.25-33.22,30.48s-68.26-10.16-79.32-34.17c-5.86-43.54,12.72-154.08-64.58-255-58.19-76-145.66-129.67-263.22-79.86a801,801,0,0,1-87.06-129.71l15.28.08-.34-41.65-35.89-.28a800.22,800.22,0,0,1,2.06-676H483l-.94-92.85H352.33c140.88-217.88,384.92-362.85,663-365.7v-.09l2.7,0c.9,0,1.81,0,2.7,0V142c218.86,2.24,416.66,92.52,559.67,237.11h-35.52l28.34,27.73h33.33c127.26,141.48,204.7,328.65,204.7,533.89A795.54,795.54,0,0,1,1629.33,1448.16Z" transform="translate(-10.36 -137.17)" style="fill:#fff;fill-rule:evenodd"/><path d="M1178.63,805.55c-25.53,48.54-38.1,106.17-33.4,168,13.16,172.89,156.35,313.1,319.76,313.1a272.86,272.86,0,0,0,72.85-9.77,314.21,314.21,0,0,1-95.74,14.87c-173.65,0-314.48-140.82-314.48-314.48a313,313,0,0,1,51-171.7Zm577.94,171.7c0-168.87-133.18-306.68-300.22-314.14C1603,683.23,1725,814.56,1737.1,973.53c7.4,97.25-27.91,184.16-89.32,241.59A313.74,313.74,0,0,0,1756.57,977.25Z" transform="translate(-10.36 -137.17)" style="fill:red;fill-rule:evenodd"/><path d="M353.47,808.13c-25.54,48.54-38.11,106.18-33.4,168,13.15,172.89,156.34,313.09,319.75,313.09a272.59,272.59,0,0,0,72.86-9.77,314,314,0,0,1-95.75,14.88c-173.65,0-314.48-140.83-314.48-314.48a313,313,0,0,1,51-171.71ZM931.4,979.84C931.4,811,798.21,673.16,631.18,665.7c146.61,20.11,268.66,151.44,280.75,310.42,7.4,97.25-27.91,184.15-89.32,241.59A313.76,313.76,0,0,0,931.4,979.84Z" transform="translate(-10.36 -137.17)" style="fill:red;fill-rule:evenodd"/><path d="M345.76,831.94c-25.53,48.54-38.1,106.17-33.4,168C325.52,1172.81,468.71,1313,632.12,1313a272.86,272.86,0,0,0,72.85-9.77,314.21,314.21,0,0,1-95.74,14.87c-173.65,0-314.48-140.82-314.48-314.48a313,313,0,0,1,51-171.7Zm577.94,171.7C923.7,834.77,790.51,697,623.48,689.5,770.09,709.62,892.14,841,904.23,999.92c7.4,97.25-27.92,184.16-89.32,241.59A313.76,313.76,0,0,0,923.7,1003.64Z" transform="translate(-10.36 -137.17)" style="fill-rule:evenodd"/><path d="M1155.25,823c-25.53,48.54-38.1,106.17-33.39,168,13.15,172.89,156.34,313.1,319.75,313.1a273,273,0,0,0,72.86-9.77,314.32,314.32,0,0,1-95.75,14.87c-173.65,0-314.48-140.82-314.48-314.47a313,313,0,0,1,51-171.71Zm578,171.71C1733.2,825.81,1600,688,1433,680.55,1579.58,700.66,1701.62,832,1713.72,991c7.4,97.25-27.92,184.16-89.32,241.59A313.75,313.75,0,0,0,1733.2,994.69Z" transform="translate(-10.36 -137.17)" style="fill-rule:evenodd"/><path d="M1172.58,813c-25.54,48.54-38.1,106.17-33.4,168,13.16,172.89,156.34,313.1,319.76,313.1a272.92,272.92,0,0,0,72.85-9.77,314.27,314.27,0,0,1-95.75,14.87c-173.65,0-314.47-140.83-314.47-314.48a312.91,312.91,0,0,1,51-171.7Zm577.94,171.7c0-168.87-133.19-306.68-300.23-314.14C1596.91,690.65,1719,822,1731.05,981c7.4,97.25-27.92,184.16-89.33,241.59A313.75,313.75,0,0,0,1750.52,984.67Z" transform="translate(-10.36 -137.17)" style="fill:aqua;fill-rule:evenodd"/><path d="M345.88,814.76c-25.54,48.54-38.1,106.17-33.4,168,13.16,172.89,156.35,313.1,319.76,313.1a273,273,0,0,0,72.85-9.77,314.32,314.32,0,0,1-95.75,14.87c-173.65,0-314.47-140.82-314.47-314.47a312.92,312.92,0,0,1,51-171.71ZM923.82,986.47c0-168.88-133.19-306.69-300.22-314.15,146.61,20.12,268.65,151.45,280.75,310.42,7.4,97.25-27.92,184.16-89.33,241.59A313.71,313.71,0,0,0,923.82,986.47Z" transform="translate(-10.36 -137.17)" style="fill:aqua;fill-rule:evenodd"/><polygon points="1858.65 456.02 1592.85 456.02 1687.71 548.87 1857.71 548.87 1858.65 456.02" style="fill:#fff;fill-rule:evenodd"/><polygon points="1801.35 336.59 1567.99 336.59 1627.37 394.71 1803.59 393.62 1801.35 336.59" style="fill:red;fill-rule:evenodd"/><polygon points="1762.63 322.01 1462.06 323.79 1513.38 349.17 1763.52 347.68 1762.63 322.01" style="fill:#fff;fill-rule:evenodd"/><polygon points="1932.03 1020.43 1751.12 1021.5 1748.66 1042.62 1932.37 1041.53 1932.03 1020.43" style="fill-rule:evenodd"/><polygon points="1838.22 1118.78 1637.91 1118.78 1675.52 1219.49 1838.54 1219.49 1838.22 1118.78" style="fill:#fff;fill-rule:evenodd"/><path d="M1039.78,1261.31c-27.4-3-108.71,111.72-123,161.28-15.47,106.82,267.73,93,245.55-5.22C1150.68,1365.86,1066.54,1264.22,1039.78,1261.31Z" transform="translate(-10.36 -137.17)" style="fill:red;fill-rule:evenodd"/><path d="M1007.3,1279.92c-27.39-3-108.71,111.71-123,161.27-15.48,106.83,267.73,93,245.54-5.21C1118.2,1384.46,1034.07,1282.82,1007.3,1279.92Z" transform="translate(-10.36 -137.17)" style="fill-rule:evenodd"/><path d="M1021.51,1274.84c-27.4-3-108.71,111.72-123,161.28-15.47,106.82,267.73,93,245.55-5.22C1132.41,1379.39,1048.27,1277.74,1021.51,1274.84Z" transform="translate(-10.36 -137.17)" style="fill:aqua;fill-rule:evenodd"/><rect x="1857.62" y="705.09" width="62.41" height="62.41"/><rect x="1531.04" y="410.8" width="38.46" height="38.46" style="fill:aqua"/><rect x="1587.76" y="1166.94" width="38.46" height="38.46" style="fill:red"/><polygon points="89.48 667.69 362.36 667.69 311.13 627.05 89.05 627.05 89.48 667.69" style="fill:#fff;fill-rule:evenodd"/><polygon points="150.91 1252.76 457.98 1250.94 406.66 1225.57 156.53 1227.05 150.91 1252.76" style="fill:#fff;fill-rule:evenodd"/><path d="M127.94,720.65l-.38-120.09H356l44.85,120.09Zm-.42-133v-4.23h4.33Z" transform="translate(-10.36 -137.17)" style="fill:#fff;fill-rule:evenodd"/><rect y="807.23" width="62.41" height="62.41"/><rect x="381.13" y="1181.78" width="38.46" height="38.46" style="fill:aqua"/><rect x="135.42" y="747.18" width="38.46" height="38.47" style="fill:red"/><polygon points="92.49 553.68 273.37 552.61 275.85 531.5 92.13 532.58 92.49 553.68" style="fill-rule:evenodd"/><rect x="13.49" y="628.16" width="38.47" height="38.46" style="fill:#fff"/><polygon points="1547.25 788.32 1613.25 849.1 1628.27 834.94 1561.24 773.23 1547.25 788.32" style="fill:#fff;fill-rule:evenodd"/><rect x="211.2" y="331.04" width="97.84" height="39.5" style="fill:#fff"/><polygon points="1165.37 1238.66 1075.66 1239.7 1074.44 1260.3 1165.54 1259.24 1165.37 1238.66" style="fill:#fff;fill-rule:evenodd"/><polygon points="997.88 1181.23 908.17 1182.27 906.95 1202.87 998.06 1201.81 997.88 1181.23" style="fill:aqua;fill-rule:evenodd"/><polygon points="911.25 1290.67 821.53 1291.71 820.31 1312.31 911.41 1311.25 911.25 1290.67" style="fill:#fff;fill-rule:evenodd"/><rect x="1023.76" y="1291.77" width="29.97" height="29.97" style="fill:#fff"/><rect x="648.45" y="611.54" width="29.97" height="29.97"/><rect x="1225.73" y="893.13" width="29.97" height="29.97" transform="translate(-289.1 1006.13) rotate(-45)" style="fill:red"/><rect x="605.25" y="1217.57" width="29.97" height="29.97" transform="translate(-700.24 662.41) rotate(-45)" style="fill:red"/><circle cx="1302.41" cy="1391.8" r="35.79" transform="translate(-137.41 2515.59) rotate(-88.32)" style="fill:red"/><path d="M1288.31,1367.67a35.8,35.8,0,1,0,35.8,35.79A35.79,35.79,0,0,0,1288.31,1367.67Z" transform="translate(-10.36 -137.17)" style="fill-rule:evenodd"/><path d="M1294.81,1363.31a35.79,35.79,0,1,0,35.79,35.79A35.79,35.79,0,0,0,1294.81,1363.31Z" transform="translate(-10.36 -137.17)" style="fill:aqua;fill-rule:evenodd"/><circle cx="774" cy="1381.21" r="35.79" transform="translate(-277.05 50.83) rotate(-11.83)" style="fill:red"/><path d="M759.91,1357.07a35.8,35.8,0,1,0,35.79,35.8A35.8,35.8,0,0,0,759.91,1357.07Z" transform="translate(-10.36 -137.17)" style="fill-rule:evenodd"/><path d="M766.41,1352.71a35.8,35.8,0,1,0,35.8,35.8A35.8,35.8,0,0,0,766.41,1352.71Z" transform="translate(-10.36 -137.17)" style="fill:aqua;fill-rule:evenodd"/><rect x="1359.93" y="225.1" width="32.9" height="32.9" style="fill:aqua"/><rect x="907.5" y="497.46" width="32.9" height="15.99" style="fill:aqua"/><rect x="1300.98" y="225.1" width="32.9" height="32.9" style="fill:aqua"/><rect x="848.56" y="497.46" width="32.9" height="15.99" style="fill:aqua"/><rect x="1258.49" y="225.1" width="16.45" height="32.9" style="fill:aqua"/><rect x="806.07" y="497.46" width="16.45" height="15.99" style="fill:aqua"/><rect x="1200.02" y="225.1" width="15.98" height="32.9" style="fill:aqua"/><rect x="747.59" y="497.46" width="15.98" height="15.99" style="fill:aqua"/><polygon points="365.18 433.24 568.32 433.24 568.32 392.6 364.76 392.6 365.18 433.24" style="fill:red;fill-rule:evenodd"/><rect x="457.17" y="320.94" width="688.84" height="6.71" style="fill:aqua"/><rect x="557.82" y="369.03" width="688.84" height="6.71" style="fill:aqua"/><rect x="754.63" y="1451.5" width="257.2" height="6.71" style="fill:aqua"/><rect x="1149.77" y="1478.25" width="82.83" height="13.59" style="fill:aqua"/><rect x="1001.36" y="1478.25" width="82.83" height="13.59" style="fill:aqua"/><rect x="894.37" y="1478.25" width="41.42" height="13.59" style="fill:aqua"/><rect x="747.14" y="1478.25" width="40.24" height="13.59" style="fill:aqua"/><path d="M509.89,990.71v-17.9H527.8v17.9H509.89m94.65-105.94h7.88q33.87,0,51.6,23.38t17.69,69.52v13.78c0,6-.22,11.73-.66,17.17H642.73v17.91h35.66v17.91h-23a72.83,72.83,0,0,1-9.3,16.84q-17.72,23.51-50.72,23.5H568.72v-58.25H550.81v-17.91h35.82V902.68H563.37V884.77h41.17m7.88-59.25H509.89V990.71H527.8v17.91H474.08v17.91H492V1143.8H596.7q41.32-.19,74.87-19.77a135.19,135.19,0,0,0,52-54.22A151.6,151.6,0,0,0,734,1044.44h46v-17.91H720.9v-17.91h38.34q.74-8.4.73-17.17V976.79q-.21-43.27-19.13-78.15a134.28,134.28,0,0,0-52.57-54q-33.66-19.12-75.85-19.14h0" transform="translate(-10.36 -137.17)"/><polygon points="576.27 947.62 576.27 947.14 576.27 889.37 558.36 889.37 558.36 947.62 576.27 947.62"/><polygon points="576.27 871.46 594.18 871.46 594.18 765.51 594.18 748.16 594.18 747.61 553.01 747.61 553.01 765.51 576.27 765.51 576.27 871.46"/><rect x="540.45" y="871.46" width="17.91" height="17.91"/><path d="M734,1044.44a151.6,151.6,0,0,1-10.38,25.37,135.19,135.19,0,0,1-52,54.22Q638,1143.59,596.7,1143.8h17.91q41.31-.19,74.87-19.77a135.19,135.19,0,0,0,52-54.22c1.27-2.4,2.13-5,3.28-7.46h17.28v-17.91H734Z" transform="translate(-10.36 -137.17)"/><path d="M777.88,976.79q-.21-43.27-19.13-78.15a134.28,134.28,0,0,0-52.57-54q-33.66-19.12-75.85-19.14H612.42q42.2,0,75.85,19.14a134.28,134.28,0,0,1,52.57,54q18.92,34.89,19.13,78.15v14.66q0,8.77-.73,17.17h39.22V990.71H777.88Z" transform="translate(-10.36 -137.17)"/><rect x="710.54" y="871.46" width="17.91" height="17.91"/><rect x="788.1" y="835.64" width="17.91" height="17.91"/><path d="M612.42,884.77h-7.88v.56q26.57,3,41.57,22.81,17.7,23.42,17.69,69.53v13.78c0,6-.22,11.73-.66,17.17h17.91c.44-5.44.66-11.15.66-17.17V977.67q0-46.11-17.7-69.53T612.42,884.77Z" transform="translate(-10.36 -137.17)"/><rect x="445.81" y="871.46" width="17.91" height="17.91"/><polygon points="481.62 706.26 481.62 853.55 499.53 853.55 517.44 853.55 517.44 835.64 499.53 835.64 499.53 688.36 489.56 688.36 481.62 688.36 467.69 688.36 445.81 688.36 445.81 706.26 467.69 706.26 481.62 706.26"/><rect x="614.46" y="871.46" width="17.9" height="17.91"/><path d="M628.2,1061.28q-15.16,20.13-41.57,23v.48h8.76q33,0,50.72-23.5a72.46,72.46,0,0,0,9.3-16.84h23v-17.91H642.73Q638.42,1047.71,628.2,1061.28Z" transform="translate(-10.36 -137.17)"/><polygon points="463.72 889.37 463.72 970.82 440.48 970.82 440.48 988.73 463.72 988.73 463.72 1006.64 481.62 1006.64 481.62 889.37 463.72 889.37"/><rect x="427.9" y="724.17" width="17.91" height="17.91"/><path d="M505.3,1001.07V983.16h17.91v17.91H505.3M600,895.13h7.88q33.87,0,51.59,23.37T677.12,988v13.78q0,9-.67,17.17H638.14v17.91H673.8v17.9h-23a72.08,72.08,0,0,1-9.31,16.84q-17.7,23.5-50.71,23.51H564.13v-58.25H546.22V1019H582V913H558.78v-17.9H600m7.88-59.25H505.3v165.19h17.91V1019H469.49v17.91h17.9v117.27H592.11q41.31-.21,74.87-19.78a135.08,135.08,0,0,0,52-54.21,151.25,151.25,0,0,0,10.39-25.38h46v-17.9H716.31V1019h38.33q.75-8.4.74-17.17V987.15q-.21-43.27-19.13-78.15a134.37,134.37,0,0,0-52.57-54Q650,835.89,607.83,835.88h0" transform="translate(-10.36 -137.17)" style="fill:red"/><polygon points="571.68 957.97 571.68 957.49 571.68 899.72 553.77 899.72 553.77 957.97 571.68 957.97" style="fill:red"/><polygon points="571.68 881.81 589.59 881.81 589.59 775.87 589.59 758.52 589.59 757.96 548.42 757.96 548.42 775.87 571.68 775.87 571.68 881.81" style="fill:red"/><rect x="535.86" y="881.81" width="17.91" height="17.91" style="fill:red"/><path d="M729.39,1054.79A151.25,151.25,0,0,1,719,1080.17a135.08,135.08,0,0,1-52,54.21q-33.56,19.57-74.87,19.78H610q41.31-.21,74.87-19.78a135.15,135.15,0,0,0,52-54.21c1.28-2.41,2.14-5,3.29-7.47h17.28v-17.91H729.39Z" transform="translate(-10.36 -137.17)" style="fill:red"/><path d="M773.29,987.15q-.21-43.27-19.13-78.16a134.4,134.4,0,0,0-52.57-54q-33.66-19.12-75.85-19.13H607.83q42.2,0,75.85,19.13a134.4,134.4,0,0,1,52.57,54q18.91,34.9,19.13,78.16v14.66c0,5.85-.24,11.56-.73,17.17h39.22v-17.91H773.29Z" transform="translate(-10.36 -137.17)" style="fill:red"/><rect x="705.95" y="881.81" width="17.91" height="17.91" style="fill:red"/><rect x="783.51" y="846" width="17.91" height="17.91" style="fill:red"/><path d="M607.83,895.13H600v.55q26.56,3,41.56,22.82,17.72,23.41,17.7,69.53v13.78c0,6-.23,11.73-.66,17.17h17.91c.43-5.44.66-11.16.66-17.17V988q0-46.12-17.7-69.53T607.83,895.13Z" transform="translate(-10.36 -137.17)" style="fill:red"/><rect x="441.22" y="881.81" width="17.91" height="17.91" style="fill:red"/><polygon points="477.03 716.62 477.03 863.9 494.94 863.9 512.85 863.9 512.85 846 494.94 846 494.94 698.72 484.97 698.72 477.03 698.72 463.1 698.72 441.22 698.72 441.22 716.62 463.1 716.62 477.03 716.62" style="fill:red"/><rect x="609.87" y="881.81" width="17.9" height="17.91" style="fill:red"/><path d="M623.61,1071.63q-15.17,20.14-41.57,23v.48h8.76q33,0,50.71-23.51a72.28,72.28,0,0,0,9.31-16.84h23v-17.9H638.14Q633.84,1058.07,623.61,1071.63Z" transform="translate(-10.36 -137.17)" style="fill:red"/><rect x="423.31" y="734.53" width="17.91" height="17.91" style="fill:red"/><path d="M512.31,1008.45v-17.9h17.9v17.9h-17.9M607,902.51h7.89q33.87,0,51.59,23.37t17.7,69.53v13.78q0,9-.67,17.17H645.14v17.91h35.67v17.9h-23a72.33,72.33,0,0,1-9.3,16.85q-17.7,23.49-50.71,23.5H571.14v-58.25H553.23v-17.91H589V920.42H565.79V902.51H607m7.89-59.25H512.31v165.19h17.9v17.91H476.49v17.91H494.4v117.27H599.12q41.31-.21,74.86-19.78a135.11,135.11,0,0,0,52-54.21,151.74,151.74,0,0,0,10.39-25.38h46v-17.9H723.32v-17.91h38.33q.74-8.4.74-17.17V994.53q-.21-43.28-19.14-78.15t-52.57-54Q657,843.27,614.84,843.26h0" transform="translate(-10.36 -137.17)" style="fill:aqua"/><polygon points="578.68 965.36 578.68 964.87 578.68 907.1 560.78 907.1 560.78 965.36 578.68 965.36" style="fill:aqua"/><rect x="542.87" y="889.2" width="17.91" height="17.91" style="fill:aqua"/><rect x="712.96" y="889.2" width="17.91" height="17.91" style="fill:aqua"/><rect x="790.52" y="853.38" width="17.91" height="17.91" style="fill:aqua"/><path d="M614.84,902.51H607v.55q26.58,3,41.57,22.82,17.7,23.42,17.7,69.53v13.78c0,6-.23,11.73-.66,17.17h17.9q.66-8.16.67-17.17V995.41q0-46.12-17.7-69.53T614.84,902.51Z" transform="translate(-10.36 -137.17)" style="fill:aqua"/><rect x="448.22" y="889.2" width="17.91" height="17.91" style="fill:aqua"/><polygon points="484.04 724 484.04 871.28 501.95 871.28 519.85 871.28 519.85 853.38 501.95 853.38 501.95 706.1 491.98 706.1 484.04 706.1 470.1 706.1 448.22 706.1 448.22 724 470.1 724 484.04 724" style="fill:aqua"/><rect x="616.88" y="889.2" width="17.9" height="17.91" style="fill:aqua"/><path d="M630.62,1079q-15.18,20.13-41.58,23v.48h8.77q33,0,50.71-23.5a72.33,72.33,0,0,0,9.3-16.85h23v-17.9H645.14Q640.85,1065.45,630.62,1079Z" transform="translate(-10.36 -137.17)" style="fill:aqua"/><rect x="430.31" y="741.91" width="17.91" height="17.91" style="fill:aqua"/><path d="M1412.16,911.82q11.91-9.06,32.46-9.07a67,67,0,0,1,8.56.53q14.4,1.83,23.69,10.18,11.91,10.72,11.91,30.17h76.51q0-29.07-15.08-51.7t-42.29-34.87q-23.76-10.66-52.9-12-4.27-.19-8.65-.2-4.69,0-9.26.2-29.7,1.31-54.16,11.06-28.18,11.26-43.61,31.49t-15.41,46.68c0,24.36,9.87,45.09,29.45,62.25a128.33,128.33,0,0,0,13.68,10.39q6,3.93,12.71,7.57h69v17.91H1403v17.86h45.59a67.68,67.68,0,0,1,10.18,6.46q11.89,9.39,11.92,26.23,0,14.88-11,23-8.65,6.45-22.2,7.82a76.09,76.09,0,0,1-7.87.39q-29.73,0-43-12.14t-13.22-37.71h-77a113.44,113.44,0,0,0,1.37,17.91,95.16,95.16,0,0,0,14.49,37.72q15.84,24.18,47.22,38,27.85,12.33,61.44,13.71c2.85.12,5.72.18,8.63.18q4.73,0,9.28-.18,48.32-1.87,77.07-23.64,31.48-23.83,31.5-65.59a89.63,89.63,0,0,0-5.69-32.26h-27.46v-17.91h35.81a96.9,96.9,0,0,0-16.44-17.91,131.55,131.55,0,0,0-19.9-13.92q-21.23-12.22-54.22-22.85t-46.15-20.55q-13.11-9.93-13.11-22.2Q1400.23,920.9,1412.16,911.82Z" transform="translate(-10.36 -137.17)"/><path d="M1541.7,1050.22a89.63,89.63,0,0,1,5.69,32.26q0,41.76-31.5,65.59-28.77,21.77-77.07,23.64c2.85.12,5.72.18,8.63.18q54.88,0,86.35-23.82t31.51-65.59a97.22,97.22,0,0,0-1-14.35h21.34v-17.91H1541.7Z" transform="translate(-10.36 -137.17)"/><rect x="1503.87" y="895.15" width="17.91" height="17.91"/><path d="M1404.5,1102q-13.23-12.12-13.23-37.71h-17.91q0,25.58,13.22,37.71t43,12.14a76.09,76.09,0,0,0,7.87-.39,90.59,90.59,0,0,1-10-1.33Q1412.73,1109.6,1404.5,1102Z" transform="translate(-10.36 -137.17)"/><path d="M1568.12,891.93q-15.07-22.63-42.29-34.87t-61.55-12.25q-4.69,0-9.26.2,29.14,1.37,52.9,12,27.21,12.24,42.29,34.87t15.08,51.7h38.23V925.72h-21.86A87.92,87.92,0,0,0,1568.12,891.93Z" transform="translate(-10.36 -137.17)"/><path d="M1413.34,957.08q13.13,9.95,46.15,20.55t54.22,22.85a131.55,131.55,0,0,1,19.9,13.92,96.9,96.9,0,0,1,16.44,17.91H1568l-.26-.37V1014.4h-16.18a131.66,131.66,0,0,0-19.91-13.92q-21.21-12.22-54.22-22.85t-46.13-20.55q-13.12-9.93-13.12-22.2,0-14,11.93-23.06a41.16,41.16,0,0,1,13.81-6.72,57.37,57.37,0,0,1,9.3-1.82,67,67,0,0,0-8.56-.53q-20.53,0-32.46,9.07t-11.93,23.06Q1400.23,947.15,1413.34,957.08Z" transform="translate(-10.36 -137.17)"/><rect x="1575.25" y="877.23" width="17.91" height="17.91"/><rect x="1374.69" y="895.19" width="17.91" height="17.87"/><path d="M1453.18,903.28a57.37,57.37,0,0,0-9.3,1.82,39.38,39.38,0,0,1,15.08,8.36q11.91,10.72,11.91,30.17h17.91q0-19.44-11.91-30.17Q1467.57,905.12,1453.18,903.28Z" transform="translate(-10.36 -137.17)"/><path d="M1312.25,1120a95.16,95.16,0,0,1-14.49-37.72,113.44,113.44,0,0,1-1.37-17.91h-35.82v17.91h19.28a95.31,95.31,0,0,0,14.49,37.72q15.84,24.18,47.22,38t70.07,13.89q4.72,0,9.28-.18-33.59-1.38-61.44-13.71Q1328.09,1144.13,1312.25,1120Z" transform="translate(-10.36 -137.17)"/><path d="M1458.73,1056.68a67.68,67.68,0,0,0-10.18-6.46h-17.91a68.2,68.2,0,0,1,10.18,6.46q11.9,9.39,11.91,26.23,0,14.88-11,23a39.37,39.37,0,0,1-14.3,6.49,90.59,90.59,0,0,0,10,1.33q13.56-1.38,22.2-7.82,11-8.18,11-23Q1470.65,1066.07,1458.73,1056.68Z" transform="translate(-10.36 -137.17)"/><path d="M1361.77,1014.4l.08.05h17.92q-6.76-3.65-12.71-7.57a128.33,128.33,0,0,1-13.68-10.39c-19.58-17.16-29.45-37.89-29.45-62.25q0-26.44,15.41-46.68T1383,856.07q24.46-9.75,54.16-11.06-4.27-.19-8.65-.2-35.2,0-63.43,11.26t-43.6,31.49Q1306,907.78,1306,934.24c0,24.36,9.87,45.09,29.45,62.25h-22.14v17.91h48.44Z" transform="translate(-10.36 -137.17)"/><rect x="1285.06" y="877.23" width="17.91" height="17.91"/><rect x="1320.88" y="895.15" width="17.91" height="17.91"/><path d="M1414.57,921.05Q1426.48,912,1447,912a66.91,66.91,0,0,1,8.56.53q14.4,1.83,23.69,10.18,11.91,10.72,11.92,30.17h76.5q0-29.07-15.08-51.7t-42.29-34.88q-23.74-10.66-52.9-12-4.28-.19-8.65-.2c-3.13,0-6.21.07-9.26.2q-29.7,1.31-54.16,11.06-28.18,11.26-43.61,31.48t-15.41,46.69c0,24.36,9.87,45.09,29.45,62.25a127,127,0,0,0,13.68,10.38q6,3.95,12.71,7.57h69v17.91h-45.79v17.87H1451a68,68,0,0,1,10.17,6.46q11.89,9.38,11.92,26.23,0,14.88-11,23-8.65,6.43-22.2,7.82a76.09,76.09,0,0,1-7.87.39q-29.73,0-43-12.14t-13.22-37.71h-77a114.64,114.64,0,0,0,1.37,17.91,95.31,95.31,0,0,0,14.49,37.72q15.85,24.18,47.23,38,27.84,12.33,61.43,13.71,4.28.18,8.63.18,4.72,0,9.28-.18,48.32-1.87,77.08-23.65,31.47-23.82,31.49-65.58a89.63,89.63,0,0,0-5.69-32.26h-27.46v-17.91h35.82a97,97,0,0,0-16.45-17.91,132.3,132.3,0,0,0-19.9-13.93q-21.22-12.21-54.22-22.84t-46.14-20.55q-13.12-9.94-13.12-22.2Q1402.64,930.13,1414.57,921.05Z" transform="translate(-10.36 -137.17)" style="fill:aqua"/><rect x="1506.29" y="904.37" width="17.91" height="17.91" style="fill:aqua"/><path d="M1406.91,1111.26q-13.23-12.13-13.22-37.71h-17.92q0,25.58,13.22,37.71t43,12.14a76.09,76.09,0,0,0,7.87-.39,88.51,88.51,0,0,1-10-1.34Q1415.16,1118.84,1406.91,1111.26Z" transform="translate(-10.36 -137.17)" style="fill:aqua"/><path d="M1570.53,901.16q-15.08-22.65-42.29-34.88T1466.69,854q-4.7,0-9.26.2,29.14,1.37,52.9,12,27.21,12.26,42.29,34.88t15.08,51.7h38.23V935h-21.86A87.92,87.92,0,0,0,1570.53,901.16Z" transform="translate(-10.36 -137.17)" style="fill:aqua"/><path d="M1415.76,966.31q13.11,9.95,46.14,20.55t54.22,22.84a132.3,132.3,0,0,1,19.9,13.93,97,97,0,0,1,16.45,17.91h17.9l-.26-.37v-17.54h-16.18a132.3,132.3,0,0,0-19.9-13.93q-21.22-12.21-54.22-22.84t-46.14-20.55q-13.12-9.94-13.12-22.2,0-14,11.93-23.06a41.25,41.25,0,0,1,13.81-6.72,57.37,57.37,0,0,1,9.3-1.82A66.91,66.91,0,0,0,1447,912q-20.54,0-32.46,9.07t-11.93,23.06Q1402.64,956.37,1415.76,966.31Z" transform="translate(-10.36 -137.17)" style="fill:aqua"/><rect x="1577.66" y="886.46" width="17.91" height="17.91" style="fill:aqua"/><rect x="1377.1" y="904.42" width="17.91" height="17.87" style="fill:aqua"/><path d="M1455.59,912.51a57.37,57.37,0,0,0-9.3,1.82,39.38,39.38,0,0,1,15.08,8.36q11.91,10.72,11.91,30.17h17.92q0-19.44-11.92-30.17Q1470,914.35,1455.59,912.51Z" transform="translate(-10.36 -137.17)" style="fill:aqua"/><path d="M1314.66,1129.18a95.31,95.31,0,0,1-14.49-37.72,114.64,114.64,0,0,1-1.37-17.91H1263v17.91h19.28a95.31,95.31,0,0,0,14.49,37.72q15.84,24.18,47.22,38t70.08,13.89c3.14,0,6.24-.06,9.27-.18q-33.58-1.39-61.43-13.71Q1330.51,1153.36,1314.66,1129.18Z" transform="translate(-10.36 -137.17)" style="fill:aqua"/><path d="M1461.14,1065.91a68,68,0,0,0-10.17-6.46h-17.92a68.34,68.34,0,0,1,10.19,6.46q11.88,9.38,11.91,26.23,0,14.88-11,23a39.11,39.11,0,0,1-14.3,6.48,88.51,88.51,0,0,0,10,1.34q13.56-1.38,22.2-7.82,11-8.18,11-23Q1473.06,1075.3,1461.14,1065.91Z" transform="translate(-10.36 -137.17)" style="fill:aqua"/><path d="M1364.18,1023.63l.08,0h17.92q-6.77-3.63-12.71-7.57a127,127,0,0,1-13.68-10.38c-19.58-17.16-29.45-37.89-29.45-62.25q0-26.44,15.41-46.69t43.61-31.48q24.47-9.75,54.16-11.06-4.27-.19-8.65-.2-35.2,0-63.42,11.26t-43.61,31.48q-15.39,20.24-15.41,46.69c0,24.36,9.87,45.09,29.45,62.25h-22.14v17.91h48.44Z" transform="translate(-10.36 -137.17)" style="fill:aqua"/><rect x="1287.47" y="886.46" width="17.91" height="17.91" style="fill:aqua"/><rect x="1323.29" y="904.37" width="17.91" height="17.91" style="fill:aqua"/><path d="M1419.93,922.45q11.91-9.06,32.46-9.07a66.91,66.91,0,0,1,8.56.53q14.4,1.83,23.7,10.18,11.91,10.73,11.91,30.17h76.5q0-29.07-15.07-51.7t-42.3-34.88q-23.75-10.65-52.9-12c-2.84-.13-5.73-.2-8.65-.2-3.13,0-6.21.07-9.26.2q-29.7,1.3-54.16,11.06-28.18,11.26-43.6,31.49t-15.41,46.68q0,36.54,29.44,62.25a128.47,128.47,0,0,0,13.69,10.39q5.94,3.93,12.7,7.57h69V1043h-45.79v17.86h45.6a68.72,68.72,0,0,1,10.18,6.46q11.88,9.39,11.91,26.23,0,14.88-11,23-8.66,6.45-22.2,7.82a76.09,76.09,0,0,1-7.87.39q-29.71,0-43-12.14T1381.13,1075h-77a113.43,113.43,0,0,0,1.38,17.91,95.29,95.29,0,0,0,14.48,37.72q15.86,24.18,47.23,38.05,27.84,12.33,61.43,13.71,4.27.18,8.63.18c3.15,0,6.25-.06,9.28-.18q48.32-1.87,77.08-23.65,31.49-23.82,31.5-65.58a89.64,89.64,0,0,0-5.7-32.26H1522v-17.91h35.82a96.9,96.9,0,0,0-16.44-17.91,132.16,132.16,0,0,0-19.91-13.92q-21.23-12.23-54.22-22.85t-46.14-20.55q-13.12-9.93-13.12-22.2Q1408,931.53,1419.93,922.45Z" transform="translate(-10.36 -137.17)" style="fill:red"/><rect x="1511.65" y="905.78" width="17.91" height="17.91" style="fill:red"/><path d="M1412.27,1112.66q-13.21-12.12-13.22-37.71h-17.92q0,25.58,13.23,37.71t43,12.14a76.09,76.09,0,0,0,7.87-.39,90.91,90.91,0,0,1-10-1.33Q1420.52,1120.23,1412.27,1112.66Z" transform="translate(-10.36 -137.17)" style="fill:red"/><rect x="1382.46" y="905.82" width="17.91" height="17.87" style="fill:red"/><path d="M1461,913.91a57.8,57.8,0,0,0-9.3,1.82,39.38,39.38,0,0,1,15.08,8.36q11.93,10.73,11.91,30.17h17.92q0-19.44-11.91-30.17Q1475.34,915.75,1461,913.91Z" transform="translate(-10.36 -137.17)" style="fill:red"/><path d="M1320,1130.58a95.29,95.29,0,0,1-14.48-37.72,113.43,113.43,0,0,1-1.38-17.91h-35.82v17.91h19.29a95.29,95.29,0,0,0,14.48,37.72q15.86,24.18,47.23,38.05t70.07,13.89q4.72,0,9.27-.18-33.57-1.38-61.43-13.71Q1335.87,1154.76,1320,1130.58Z" transform="translate(-10.36 -137.17)" style="fill:red"/><path d="M1466.51,1067.31a68.72,68.72,0,0,0-10.18-6.46h-17.91a68.72,68.72,0,0,1,10.18,6.46q11.88,9.39,11.91,26.23,0,14.88-11,23a39.29,39.29,0,0,1-14.3,6.49,90.91,90.91,0,0,0,10,1.33q13.56-1.38,22.2-7.82,11.05-8.17,11-23Q1478.42,1076.7,1466.51,1067.31Z" transform="translate(-10.36 -137.17)" style="fill:red"/><path d="M1369.54,1025l.09,0h17.91q-6.76-3.64-12.7-7.57a128.47,128.47,0,0,1-13.69-10.39q-29.37-25.74-29.44-62.25,0-26.45,15.41-46.68t43.6-31.49q24.46-9.75,54.16-11.06c-2.84-.13-5.73-.2-8.65-.2q-35.2,0-63.42,11.26t-43.61,31.49q-15.39,20.22-15.4,46.68,0,36.54,29.44,62.25h-22.13V1025h48.43Z" transform="translate(-10.36 -137.17)" style="fill:red"/><rect x="1292.84" y="887.86" width="17.91" height="17.91" style="fill:red"/><rect x="1500.25" y="1009.39" width="29.97" height="29.97"/><polygon points="735.87 963.07 646.16 964.11 644.94 984.71 736.04 983.65 735.87 963.07" style="fill:#fff;fill-rule:evenodd"/><polygon points="1368.67 804.88 1278.97 805.91 1277.74 826.52 1368.85 825.46 1368.67 804.88" style="fill:#fff;fill-rule:evenodd"/><polygon points="1341.44 991.73 1278.75 1055.89 1292.45 1071.33 1356.12 1006.15 1341.44 991.73" style="fill:#fff;fill-rule:evenodd"/><polygon points="535.83 784.36 446.12 785.4 444.89 806 536 804.94 535.83 784.36" style="fill:#fff;fill-rule:evenodd"/></svg>