<svg xmlns="http://www.w3.org/2000/svg" viewBox="0 0 1872.82 1629.46"><title>DSX-Sticker</title><polygon points="103.29 904.25 322.46 904.25 266.7 849.67 106.29 849.67 103.29 904.25" style="fill:#ff9472;fill-rule:evenodd"/><polygon points="111.47 1162.86 330.64 1162.86 276.01 1109.39 201.66 1109.02 201.03 1108.28 114.47 1108.28 111.47 1162.86" style="fill:#13ca91;fill-rule:evenodd"/><polygon points="1872.42 852.39 1616.13 852.39 1664.25 890.56 1872.82 890.56 1872.42 852.39" style="fill:#3b27ba;fill-rule:evenodd"/><path d="M1634.11,1425c-106.93-45.31-184.79-.47-238.66,67-.82,1-1.61,2-2.41,3.07l-116.09.68-2.31,19.84,103.94-.62c-58.69,87.32-49.18,164-52.47,225.72-10.39,22.55-50.24,29.49-74.5,32.09s-26.9-13.89-31.2-28.62c-1.89-6.47-10-26.69-11.73-47.18-1.61-19.54-24.5-15-24.2,1.74.66,36.2,0,77.19-4.9,87-10.4,20.79-46.22,25-70.49,23.55s-24.88-18.44-29.18-33.89c-2.13-7.66-4.54-40.88-6.35-64.18-1.39-17.76-24-18-25.4-.19-1.79,23-4.17,55.63-6.3,63.21-4.33,15.48-6.92,32.4-31.19,33.89s-64.12-2.76-74.5-23.55c-4.72-9.46-5.48-48.06-4.95-82.91.29-19.7-24.4-26.75-26.28-4.44-1.69,20-3.75,39.42-5.6,45.76-4.32,14.74-6.93,31.22-31.2,28.62s-64.11-9.54-74.5-32.09c-5.5-40.89,12-144.71-60.65-239.53-54.65-71.4-136.8-121.79-247.21-75a751.4,751.4,0,0,1-87.46-132.58l-.19-23.82-11.63-.09A751.47,751.47,0,0,1,384.85,632h172.6l-.88-87.2H432.76c132-206.34,362.2-343.83,624.64-346.52v-.08l2.54,0c.85,0,1.7,0,2.54,0v.08c207.08,2.12,394,88.19,528.59,225.74h-85.6l46.46,26h63.44c117.9,132.52,189.56,307.07,189.56,498.37A747.17,747.17,0,0,1,1634.11,1425Z" transform="translate(-93.67 -198.15)" style="fill:#13ca91;fill-rule:evenodd"/><path d="M1595.25,1443c-99.58-42.2-174-6.2-227.22,53.45l-110.92.65-2.32,19.84,96.85-.58c-71.86,94.21-60.9,176.79-64.39,242.34-10.39,22.55-50.24,29.49-74.51,32.09s-26.89-13.89-31.19-28.62c-1.89-6.47-10-26.69-11.73-47.19-1.61-19.53-24.5-15-24.2,1.75.66,36.2,0,77.19-4.9,87-10.4,20.79-46.23,25-70.49,23.54s-24.88-18.43-29.19-33.88c-2.13-7.67-4.54-40.89-6.35-64.18-1.38-17.76-24-18-25.39-.19-1.8,23-4.17,55.62-6.3,63.21-4.33,15.47-6.93,32.4-31.19,33.89s-64.12-2.76-74.5-23.55c-4.73-9.46-5.48-48.06-5-82.91.29-19.7-24.4-26.75-26.28-4.44-1.68,20-3.74,39.42-5.6,45.76-4.32,14.74-6.93,31.22-31.19,28.62s-64.11-9.54-74.51-32.09c-5.49-40.89,12-144.71-60.64-239.53-54.66-71.4-136.81-121.79-247.21-75a750.7,750.7,0,0,1-89-135.56l40.5.21-.31-39.12-58.9-.44A751.57,751.57,0,0,1,354,633.36H537.61l-.88-87.2H404.89c133.55-197,358.34-327.24,613.65-329.86v-.09l2.54,0c.85,0,1.69,0,2.54,0v.09c198.59,2,378.73,81.26,511.82,209.08h-.59l23.31,22.82c128.78,134.69,207.91,317.23,207.91,518.26A747.17,747.17,0,0,1,1595.25,1443Z" transform="translate(-93.67 -198.15)" style="fill:#ff9472;fill-rule:evenodd"/><path d="M1614.2,1429.43c-106.93-45.31-184.79-.48-238.66,67h0l-118.43.7-2.32,19.84,106-.63c-61,88.58-51.23,166.4-54.56,228.78-10.39,22.56-50.24,29.49-74.5,32.1s-26.89-13.89-31.2-28.63c-1.89-6.47-10-26.69-11.72-47.18-1.62-19.54-24.51-15-24.21,1.74.66,36.2,0,77.19-4.9,87-10.39,20.8-46.22,25-70.49,23.55s-24.88-18.43-29.18-33.89c-2.14-7.66-4.54-40.88-6.35-64.17-1.39-17.77-24-18-25.4-.2-1.79,23-4.17,55.63-6.29,63.21-4.34,15.48-6.93,32.4-31.2,33.89s-64.12-2.76-74.5-23.55c-4.72-9.45-5.48-48.06-5-82.9.29-19.7-24.4-26.75-26.28-4.44-1.69,20-3.75,39.42-5.6,45.75-4.32,14.74-6.93,31.23-31.2,28.63s-64.11-9.54-74.5-32.1c-5.5-40.88,11.95-144.7-60.65-239.53-54.65-71.39-136.8-121.78-247.21-75a751.88,751.88,0,0,1-81.78-121.82l14.35.07-.31-39.12-33.71-.26a751.54,751.54,0,0,1,1.94-634.94H537.61l-.88-87.2H414.84c132.31-204.63,361.52-340.79,622.65-343.47v-.08l2.54,0c.85,0,1.7,0,2.54,0v.08c205.55,2.11,391.33,86.9,525.63,222.69h-33.35l26.61,26.05h31.31C1712.29,584.31,1785,760.1,1785,952.86A747.19,747.19,0,0,1,1614.2,1429.43Z" transform="translate(-93.67 -198.15)" style="fill:#3b27ba;fill-rule:evenodd"/><path d="M1279.18,923.42l54.17,53.32L1280,1030.9a66.24,66.24,0,0,0,.74,93.39h0a66.24,66.24,0,0,0,93.39-.75l53.31-54.17,54.17,53.32A66.22,66.22,0,0,0,1575,1122h0a66.24,66.24,0,0,0-.74-93.39l-54.17-53.31,53.31-54.17a66.22,66.22,0,0,0-.74-93.38h0a66.22,66.22,0,0,0-93.38.74L1426,882.61l-54.16-53.32a66.24,66.24,0,0,0-93.39.75h0A66.24,66.24,0,0,0,1279.18,923.42Z" transform="translate(-93.67 -198.15)" style="fill:#13ca91;fill-rule:evenodd"/><path d="M1272.14,949.36l54.17,53.31L1273,1056.83a66.24,66.24,0,0,0,.75,93.39h0a66.22,66.22,0,0,0,93.38-.74l53.31-54.17,54.17,53.31a66.24,66.24,0,0,0,93.39-.74h0a66.22,66.22,0,0,0-.74-93.38l-54.17-53.32L1566.39,947a66.22,66.22,0,0,0-.74-93.38h0a66.24,66.24,0,0,0-93.39.74L1419,908.54l-54.17-53.31a66.22,66.22,0,0,0-93.38.74h0A66.23,66.23,0,0,0,1272.14,949.36Z" transform="translate(-93.67 -198.15)" style="fill:#ff9472;fill-rule:evenodd"/><path d="M1276.78,939.57,1331,992.88l-53.32,54.17a66.24,66.24,0,0,0,.74,93.39h0a66.24,66.24,0,0,0,93.39-.74l53.31-54.17,54.17,53.32a66.24,66.24,0,0,0,93.39-.75h0a66.24,66.24,0,0,0-.75-93.39l-54.16-53.31L1571,937.22a66.23,66.23,0,0,0-.75-93.38h0a66.24,66.24,0,0,0-93.39.74l-53.31,54.17-54.17-53.31a66.23,66.23,0,0,0-93.39.74h0A66.22,66.22,0,0,0,1276.78,939.57Z" transform="translate(-93.67 -198.15)" style="fill:#e847ae;fill-rule:evenodd"/><path d="M1190.91,825.89c-24,45.59-35.79,99.72-31.37,157.77,12.36,162.38,146.84,294.06,300.32,294.06a256.06,256.06,0,0,0,68.42-9.18,295,295,0,0,1-89.93,14c-163.09,0-295.35-132.26-295.35-295.36a293.88,293.88,0,0,1,47.91-161.26Zm542.8,161.26c0-158.6-125.09-288-282-295,137.69,18.89,252.32,142.23,263.68,291.54,6.95,91.34-26.22,173-83.89,226.9A294.69,294.69,0,0,0,1733.71,987.15Z" transform="translate(-93.67 -198.15)" style="fill:#13ca91;fill-rule:evenodd"/><path d="M415.91,828.32c-24,45.59-35.79,99.71-31.37,157.77,12.36,162.38,146.84,294.06,300.32,294.06a256,256,0,0,0,68.42-9.18,295,295,0,0,1-89.92,14c-163.1,0-295.36-132.26-295.36-295.36a294,294,0,0,1,47.91-161.26Zm542.8,161.26c0-158.6-125.09-288-282-295,137.7,18.89,252.32,142.24,263.68,291.55,7,91.33-26.22,173-83.89,226.9A294.69,294.69,0,0,0,958.71,989.58Z" transform="translate(-93.67 -198.15)" style="fill:#13ca91;fill-rule:evenodd"/><path d="M408.68,850.67c-24,45.59-35.79,99.72-31.37,157.77,12.35,162.38,146.83,294.06,300.31,294.06a256.48,256.48,0,0,0,68.43-9.17,295,295,0,0,1-89.93,14C493,1307.3,360.77,1175,360.77,1011.94a293.92,293.92,0,0,1,47.91-161.27Zm542.79,161.27c0-158.6-125.08-288-282-295,137.7,18.89,252.33,142.24,263.69,291.54,6.95,91.34-26.22,173-83.89,226.9A294.64,294.64,0,0,0,951.47,1011.94Z" transform="translate(-93.67 -198.15)" style="fill:#ff9472;fill-rule:evenodd"/><path d="M1169,842.26c-24,45.59-35.79,99.72-31.37,157.77,12.36,162.38,146.84,294.06,300.32,294.06a256.06,256.06,0,0,0,68.42-9.18,295,295,0,0,1-89.93,14c-163.09,0-295.35-132.26-295.35-295.35A293.89,293.89,0,0,1,1169,842.26Zm542.8,161.27c0-158.61-125.09-288-282-295,137.7,18.89,252.32,142.23,263.68,291.54,7,91.34-26.22,173-83.89,226.9A294.66,294.66,0,0,0,1711.75,1003.53Z" transform="translate(-93.67 -198.15)" style="fill:#ff9472;fill-rule:evenodd"/><path d="M1185.22,832.86c-24,45.59-35.78,99.71-31.37,157.76,12.36,162.38,146.84,294.07,300.32,294.07a256,256,0,0,0,68.42-9.18,295,295,0,0,1-89.92,14c-163.1,0-295.36-132.26-295.36-295.36a293.88,293.88,0,0,1,47.91-161.26ZM1728,994.12c0-158.6-125.09-288-282-295,137.7,18.89,252.32,142.24,263.68,291.54,7,91.34-26.22,173-83.89,226.9A294.65,294.65,0,0,0,1728,994.12Z" transform="translate(-93.67 -198.15)" style="fill:#e847ae;fill-rule:evenodd"/><path d="M408.78,834.54c-24,45.59-35.78,99.72-31.36,157.77,12.35,162.38,146.84,294.06,300.31,294.06a256.41,256.41,0,0,0,68.42-9.17,295.25,295.25,0,0,1-89.92,14c-163.1,0-295.36-132.26-295.36-295.35a294,294,0,0,1,47.91-161.27Zm542.8,161.27c0-158.61-125.09-288-282-295C807.31,719.66,921.94,843,933.3,992.31c7,91.34-26.22,173-83.89,226.9A294.66,294.66,0,0,0,951.58,995.81Z" transform="translate(-93.67 -198.15)" style="fill:#e847ae;fill-rule:evenodd"/><polygon points="1745.64 428.29 1496 428.29 1585.09 515.5 1744.76 515.5 1745.64 428.29" style="fill:#3b27ba;fill-rule:evenodd"/><polygon points="1691.83 316.13 1472.66 316.13 1528.42 370.71 1693.93 369.69 1691.83 316.13" style="fill:#13ca91;fill-rule:evenodd"/><polygon points="1655.46 302.44 1373.17 304.1 1421.36 327.94 1656.29 326.54 1655.46 302.44" style="fill:#3b27ba;fill-rule:evenodd"/><polygon points="1814.56 958.39 1644.65 959.39 1642.34 979.23 1814.88 978.2 1814.56 958.39" style="fill:#ff9472;fill-rule:evenodd"/><polygon points="1726.46 1050.76 1538.32 1050.76 1573.64 1145.35 1726.75 1145.35 1726.46 1050.76" style="fill:#3b27ba;fill-rule:evenodd"/><path d="M1060.5,1253.94c-25.74-2.79-102.11,104.93-115.53,151.47-14.54,100.33,251.45,87.36,230.62-4.89C1164.65,1352.13,1085.63,1256.67,1060.5,1253.94Z" transform="translate(-93.67 -198.15)" style="fill:#13ca91;fill-rule:evenodd"/><path d="M1030,1271.41c-25.73-2.8-102.1,104.93-115.52,151.47-14.54,100.34,251.45,87.36,230.61-4.89C1134.15,1369.6,1055.13,1274.14,1030,1271.41Z" transform="translate(-93.67 -198.15)" style="fill:#ff9472;fill-rule:evenodd"/><path d="M1043.34,1266.65c-25.74-2.8-102.11,104.93-115.53,151.47-14.54,100.33,251.45,87.36,230.62-4.9C1147.49,1364.84,1068.47,1269.38,1043.34,1266.65Z" transform="translate(-93.67 -198.15)" style="fill:#e847ae;fill-rule:evenodd"/><rect x="1744.68" y="662.22" width="58.62" height="58.62" style="fill:#ff9472"/><rect x="1437.95" y="385.82" width="36.13" height="36.13" style="fill:#e847ae"/><rect x="1491.22" y="1095.99" width="36.12" height="36.12" style="fill:#13ca91"/><polygon points="84.04 627.1 340.33 627.1 292.21 588.93 83.64 588.93 84.04 627.1" style="fill:#3b27ba;fill-rule:evenodd"/><polygon points="141.73 1176.59 430.13 1174.88 381.94 1151.05 147.01 1152.45 141.73 1176.59" style="fill:#3b27ba;fill-rule:evenodd"/><path d="M204.09,746.16l-.35-112.8H418.26l42.13,112.8Zm-.39-124.89v-4h4.07Z" transform="translate(-93.67 -198.15)" style="fill:#3b27ba;fill-rule:evenodd"/><rect y="758.15" width="58.62" height="58.62" style="fill:#ff9472"/><rect x="357.96" y="1109.92" width="36.12" height="36.12" style="fill:#e847ae"/><rect x="127.19" y="701.75" width="36.12" height="36.13" style="fill:#13ca91"/><polygon points="86.86 520.02 256.75 519.01 259.08 499.18 86.53 500.2 86.86 520.02" style="fill:#ff9472;fill-rule:evenodd"/><rect x="12.67" y="589.97" width="36.13" height="36.13" style="fill:#3b27ba"/><polygon points="1344.6 608.6 1225.16 729.44 1237.56 745.1 1358.84 622.37 1344.6 608.6" style="fill:#e847ae;fill-rule:evenodd"/><polygon points="1200.87 881.02 1141.99 941.28 1154.85 955.78 1214.65 894.57 1200.87 881.02" style="fill:#3b27ba;fill-rule:evenodd"/><polygon points="1453.18 740.39 1515.16 797.47 1529.27 784.18 1466.32 726.22 1453.18 740.39" style="fill:#3b27ba;fill-rule:evenodd"/><rect x="198.35" y="310.91" width="91.89" height="37.1" style="fill:#3b27ba"/><polygon points="1094.52 1163.35 1010.26 1164.33 1009.11 1183.67 1094.68 1182.68 1094.52 1163.35" style="fill:#3b27ba;fill-rule:evenodd"/><polygon points="937.21 1109.41 852.96 1110.39 851.81 1129.73 937.38 1128.73 937.21 1109.41" style="fill:#e847ae;fill-rule:evenodd"/><polygon points="855.84 1212.19 771.58 1213.17 770.44 1232.52 856 1231.52 855.84 1212.19" style="fill:#3b27ba;fill-rule:evenodd"/><rect x="961.51" y="1213.23" width="28.15" height="28.15" style="fill:#3b27ba"/><rect x="1495.21" y="905.2" width="28.15" height="28.15" style="fill:#ff9472"/><rect x="596.73" y="569.83" width="28.15" height="28.15" style="fill:#ff9472"/><rect x="1205.77" y="963.63" width="28.15" height="28.15" transform="translate(-427.72 950.78) rotate(-45)" style="fill:#13ca91"/><path d="M573.72,1130.67,627,1076.5l54.16,53.31a66.25,66.25,0,0,0,93.39-.74h0a66.23,66.23,0,0,0-.75-93.39l-54.16-53.31L773,928.2a66.24,66.24,0,0,0-.74-93.39h0a66.24,66.24,0,0,0-93.39.75l-53.31,54.17-54.17-53.31a66.22,66.22,0,0,0-93.38.74h0a66.22,66.22,0,0,0,.74,93.38l54.17,53.32L479.6,1038a66.23,66.23,0,0,0,.74,93.39h0A66.23,66.23,0,0,0,573.72,1130.67Z" transform="translate(-93.67 -198.15)" style="fill:#13ca91;fill-rule:evenodd"/><path d="M599.66,1137.71,653,1083.54l54.17,53.32a66.22,66.22,0,0,0,93.38-.75h0a66.23,66.23,0,0,0-.74-93.39l-54.17-53.31,53.32-54.17a66.23,66.23,0,0,0-.75-93.38h0a66.22,66.22,0,0,0-93.38.74l-53.32,54.17-54.17-53.31a66.22,66.22,0,0,0-93.38.74h0a66.22,66.22,0,0,0,.74,93.38l54.17,53.32-53.31,54.17a66.22,66.22,0,0,0,.74,93.38h0A66.24,66.24,0,0,0,599.66,1137.71Z" transform="translate(-93.67 -198.15)" style="fill:#ff9472;fill-rule:evenodd"/><path d="M589.87,1133.07l53.31-54.17,54.17,53.32a66.24,66.24,0,0,0,93.39-.75h0a66.22,66.22,0,0,0-.75-93.38l-54.17-53.31,53.32-54.17a66.24,66.24,0,0,0-.75-93.39h0A66.25,66.25,0,0,0,695,838L641.7,892.13l-54.17-53.31a66.25,66.25,0,0,0-93.39.74h0a66.24,66.24,0,0,0,.75,93.39l54.16,53.31-53.31,54.17a66.22,66.22,0,0,0,.74,93.38h0A66.23,66.23,0,0,0,589.87,1133.07Z" transform="translate(-93.67 -198.15)" style="fill:#e847ae;fill-rule:evenodd"/><polygon points="363.38 773.44 484.22 892.87 499.88 880.48 377.15 759.19 363.38 773.44" style="fill:#e847ae;fill-rule:evenodd"/><polygon points="635.8 917.16 696.06 976.05 710.56 963.18 649.35 903.38 635.8 917.16" style="fill:#3b27ba;fill-rule:evenodd"/><rect x="613.93" y="1175.93" width="28.15" height="28.15" transform="translate(-751.19 594.46) rotate(-45)" style="fill:#13ca91"/><circle cx="1307.15" cy="1376.49" r="33.62" transform="translate(-200.81 2444.5) rotate(-88.32)" style="fill:#13ca91"/><path d="M1293.91,1353.83a33.62,33.62,0,1,0,33.62,33.62A33.62,33.62,0,0,0,1293.91,1353.83Z" transform="translate(-93.67 -198.15)" style="fill:#ff9472;fill-rule:evenodd"/><path d="M1300,1349.73a33.62,33.62,0,1,0,33.62,33.62A33.62,33.62,0,0,0,1300,1349.73Z" transform="translate(-93.67 -198.15)" style="fill:#e847ae;fill-rule:evenodd"/><circle cx="810.88" cy="1366.55" r="33.62" transform="translate(-356.57 -2.91) rotate(-11.83)" style="fill:#13ca91"/><path d="M797.64,1343.88a33.62,33.62,0,1,0,33.62,33.62A33.63,33.63,0,0,0,797.64,1343.88Z" transform="translate(-93.67 -198.15)" style="fill:#ff9472;fill-rule:evenodd"/><path d="M803.75,1339.78a33.62,33.62,0,1,0,33.62,33.63A33.63,33.63,0,0,0,803.75,1339.78Z" transform="translate(-93.67 -198.15)" style="fill:#e847ae;fill-rule:evenodd"/><rect x="1277.24" y="211.42" width="30.9" height="30.9" style="fill:#e847ae"/><rect x="852.33" y="467.21" width="30.9" height="15.02" style="fill:#e847ae"/><rect x="1221.88" y="211.41" width="30.9" height="30.9" style="fill:#e847ae"/><rect x="796.97" y="467.21" width="30.9" height="15.02" style="fill:#e847ae"/><rect x="1181.97" y="211.41" width="15.45" height="30.9" style="fill:#e847ae"/><rect x="757.06" y="467.21" width="15.45" height="15.02" style="fill:#e847ae"/><rect x="1127.05" y="211.41" width="15.01" height="30.9" style="fill:#e847ae"/><rect x="702.14" y="467.21" width="15.01" height="15.02" style="fill:#e847ae"/><polygon points="342.98 406.9 533.77 406.9 533.77 368.73 342.58 368.73 342.98 406.9" style="fill:#13ca91;fill-rule:evenodd"/><rect x="429.38" y="301.43" width="646.96" height="6.3" style="fill:#e847ae"/><rect x="523.9" y="346.59" width="646.96" height="6.3" style="fill:#e847ae"/><rect x="708.74" y="1363.24" width="241.56" height="6.3" style="fill:#e847ae"/><rect x="1079.86" y="1388.37" width="77.8" height="12.76" style="fill:#e847ae"/><rect x="940.48" y="1388.37" width="77.8" height="12.76" style="fill:#e847ae"/><rect x="839.99" y="1388.37" width="38.9" height="12.76" style="fill:#e847ae"/><rect x="701.71" y="1388.37" width="37.79" height="12.76" style="fill:#e847ae"/></svg>