<svg xmlns="http://www.w3.org/2000/svg" viewBox="0 0 1872.82 1629.46"><title>DSX-Sticker-DS-Logo</title><polygon points="103.29 904.25 322.46 904.25 266.7 849.67 106.29 849.67 103.29 904.25" style="fill-rule:evenodd"/><polygon points="111.47 1162.86 330.64 1162.86 276.01 1109.39 201.66 1109.02 201.03 1108.28 114.47 1108.28 111.47 1162.86" style="fill:red;fill-rule:evenodd"/><polygon points="1872.42 852.39 1616.13 852.39 1664.25 890.56 1872.82 890.56 1872.42 852.39" style="fill:#fff;fill-rule:evenodd"/><path d="M1634.11,1425c-106.93-45.31-184.79-.47-238.66,67-.82,1-1.61,2-2.41,3.07l-116.09.68-2.31,19.84,103.94-.62c-58.69,87.32-49.18,164-52.47,225.72-10.39,22.55-50.24,29.49-74.5,32.09s-26.9-13.89-31.2-28.62c-1.89-6.47-10-26.69-11.73-47.18-1.61-19.54-24.5-15-24.2,1.74.66,36.2,0,77.19-4.9,87-10.4,20.79-46.22,25-70.49,23.55s-24.88-18.44-29.18-33.89c-2.13-7.66-4.54-40.88-6.35-64.18-1.39-17.76-24-18-25.4-.19-1.79,23-4.17,55.63-6.3,63.21-4.33,15.48-6.92,32.4-31.19,33.89s-64.12-2.76-74.5-23.55c-4.72-9.46-5.48-48.06-4.95-82.91.29-19.7-24.4-26.75-26.28-4.44-1.69,20-3.75,39.42-5.6,45.76-4.32,14.74-6.93,31.22-31.2,28.62s-64.11-9.54-74.5-32.09c-5.5-40.89,12-144.71-60.65-239.53-54.65-71.4-136.8-121.79-247.21-75a751.4,751.4,0,0,1-87.46-132.58l-.19-23.82-11.63-.09A751.47,751.47,0,0,1,384.85,632h172.6l-.88-87.2H432.76c132-206.34,362.2-343.83,624.64-346.52v-.08l2.54,0c.85,0,1.7,0,2.54,0v.08c207.08,2.12,394,88.19,528.59,225.74h-85.6l46.46,26h63.44c117.9,132.52,189.56,307.07,189.56,498.37A747.17,747.17,0,0,1,1634.11,1425Z" transform="translate(-93.67 -198.15)" style="fill:red;fill-rule:evenodd"/><path d="M1595.25,1443c-99.58-42.2-174-6.2-227.22,53.45l-110.92.65-2.32,19.84,96.85-.58c-71.86,94.21-60.9,176.79-64.39,242.34-10.39,22.55-50.24,29.49-74.51,32.09s-26.89-13.89-31.19-28.62c-1.89-6.47-10-26.69-11.73-47.19-1.61-19.53-24.5-15-24.2,1.75.66,36.2,0,77.19-4.9,87-10.4,20.79-46.23,25-70.49,23.54s-24.88-18.43-29.19-33.88c-2.13-7.67-4.54-40.89-6.35-64.18-1.38-17.76-24-18-25.39-.19-1.8,23-4.17,55.62-6.3,63.21-4.33,15.47-6.93,32.4-31.19,33.89s-64.12-2.76-74.5-23.55c-4.73-9.46-5.48-48.06-5-82.91.29-19.7-24.4-26.75-26.28-4.44-1.68,20-3.74,39.42-5.6,45.76-4.32,14.74-6.93,31.22-31.19,28.62s-64.11-9.54-74.51-32.09c-5.49-40.89,12-144.71-60.64-239.53-54.66-71.4-136.81-121.79-247.21-75a750.7,750.7,0,0,1-89-135.56l40.5.21-.31-39.12-58.9-.44A751.57,751.57,0,0,1,354,633.36H537.61l-.88-87.2H404.89c133.55-197,358.34-327.24,613.65-329.86v-.09l2.54,0c.85,0,1.69,0,2.54,0v.09c198.59,2,378.73,81.26,511.82,209.08h-.59l23.31,22.82c128.78,134.69,207.91,317.23,207.91,518.26A747.17,747.17,0,0,1,1595.25,1443Z" transform="translate(-93.67 -198.15)" style="fill-rule:evenodd"/><path d="M1612.2,1430.43c-106.93-45.31-184.79-.48-238.66,67h0l-118.43.7-2.32,19.84,106-.63c-61,88.58-51.23,166.4-54.56,228.78-10.39,22.56-50.24,29.49-74.5,32.1s-26.89-13.89-31.2-28.63c-1.89-6.47-10-26.69-11.72-47.18-1.62-19.54-24.51-15-24.21,1.74.66,36.2,0,77.19-4.9,87-10.39,20.8-46.22,25-70.49,23.55s-24.88-18.43-29.18-33.89c-2.14-7.66-4.54-40.88-6.35-64.17-1.39-17.77-24-18-25.4-.2-1.79,23-4.17,55.63-6.29,63.21-4.34,15.48-6.93,32.4-31.2,33.89s-64.12-2.76-74.5-23.55c-4.72-9.45-5.48-48.06-5-82.9.29-19.7-24.4-26.75-26.28-4.44-1.69,20-3.75,39.42-5.6,45.75-4.32,14.74-6.93,31.23-31.2,28.63s-64.11-9.54-74.5-32.1c-5.5-40.88,11.95-144.7-60.65-239.53-54.65-71.39-136.8-121.78-247.21-75a751.88,751.88,0,0,1-81.78-121.82l14.35.07-.31-39.12-33.71-.26a751.54,751.54,0,0,1,1.94-634.94H535.61l-.88-87.2H412.84c132.31-204.63,361.52-340.79,622.65-343.47v-.08l2.54,0c.85,0,1.7,0,2.54,0v.08c205.55,2.11,391.33,86.9,525.63,222.69h-33.35l26.61,26.05h31.31C1710.29,585.31,1783,761.1,1783,953.86A747.19,747.19,0,0,1,1612.2,1430.43Z" transform="translate(-93.67 -198.15)" style="fill:#fff;fill-rule:evenodd"/><path d="M1190.91,825.89c-24,45.59-35.79,99.72-31.37,157.77,12.36,162.38,146.84,294.06,300.32,294.06a256.06,256.06,0,0,0,68.42-9.18,295,295,0,0,1-89.93,14c-163.09,0-295.35-132.26-295.35-295.36a293.88,293.88,0,0,1,47.91-161.26Zm542.8,161.26c0-158.6-125.09-288-282-295,137.69,18.89,252.32,142.23,263.68,291.54,6.95,91.34-26.22,173-83.89,226.9A294.69,294.69,0,0,0,1733.71,987.15Z" transform="translate(-93.67 -198.15)" style="fill:red;fill-rule:evenodd"/><path d="M415.91,828.32c-24,45.59-35.79,99.71-31.37,157.77,12.36,162.38,146.84,294.06,300.32,294.06a256,256,0,0,0,68.42-9.18,295,295,0,0,1-89.92,14c-163.1,0-295.36-132.26-295.36-295.36a294,294,0,0,1,47.91-161.26Zm542.8,161.26c0-158.6-125.09-288-282-295,137.7,18.89,252.32,142.24,263.68,291.55,7,91.33-26.22,173-83.89,226.9A294.69,294.69,0,0,0,958.71,989.58Z" transform="translate(-93.67 -198.15)" style="fill:red;fill-rule:evenodd"/><path d="M408.68,850.67c-24,45.59-35.79,99.72-31.37,157.77,12.35,162.38,146.83,294.06,300.31,294.06a256.48,256.48,0,0,0,68.43-9.17,295,295,0,0,1-89.93,14C493,1307.3,360.77,1175,360.77,1011.94a293.92,293.92,0,0,1,47.91-161.27Zm542.79,161.27c0-158.6-125.08-288-282-295,137.7,18.89,252.33,142.24,263.69,291.54,6.95,91.34-26.22,173-83.89,226.9A294.64,294.64,0,0,0,951.47,1011.94Z" transform="translate(-93.67 -198.15)" style="fill-rule:evenodd"/><path d="M1169,842.26c-24,45.59-35.79,99.72-31.37,157.77,12.36,162.38,146.84,294.06,300.32,294.06a256.06,256.06,0,0,0,68.42-9.18,295,295,0,0,1-89.93,14c-163.09,0-295.35-132.26-295.35-295.35A293.89,293.89,0,0,1,1169,842.26Zm542.8,161.27c0-158.61-125.09-288-282-295,137.7,18.89,252.32,142.23,263.68,291.54,7,91.34-26.22,173-83.89,226.9A294.66,294.66,0,0,0,1711.75,1003.53Z" transform="translate(-93.67 -198.15)" style="fill-rule:evenodd"/><path d="M1185.22,832.86c-24,45.59-35.78,99.71-31.37,157.76,12.36,162.38,146.84,294.07,300.32,294.07a256,256,0,0,0,68.42-9.18,295,295,0,0,1-89.92,14c-163.1,0-295.36-132.26-295.36-295.36a293.88,293.88,0,0,1,47.91-161.26ZM1728,994.12c0-158.6-125.09-288-282-295,137.7,18.89,252.32,142.24,263.68,291.54,7,91.34-26.22,173-83.89,226.9A294.65,294.65,0,0,0,1728,994.12Z" transform="translate(-93.67 -198.15)" style="fill:aqua;fill-rule:evenodd"/><path d="M408.78,834.54c-24,45.59-35.78,99.72-31.36,157.77,12.35,162.38,146.84,294.06,300.31,294.06a256.41,256.41,0,0,0,68.42-9.17,295.25,295.25,0,0,1-89.92,14c-163.1,0-295.36-132.26-295.36-295.35a294,294,0,0,1,47.91-161.27Zm542.8,161.27c0-158.61-125.09-288-282-295C807.31,719.66,921.94,843,933.3,992.31c7,91.34-26.22,173-83.89,226.9A294.66,294.66,0,0,0,951.58,995.81Z" transform="translate(-93.67 -198.15)" style="fill:aqua;fill-rule:evenodd"/><polygon points="1745.64 428.29 1496 428.29 1585.09 515.5 1744.76 515.5 1745.64 428.29" style="fill:#fff;fill-rule:evenodd"/><polygon points="1691.83 316.13 1472.66 316.13 1528.42 370.71 1693.93 369.69 1691.83 316.13" style="fill:red;fill-rule:evenodd"/><polygon points="1655.46 302.44 1373.17 304.1 1421.36 327.94 1656.29 326.54 1655.46 302.44" style="fill:#fff;fill-rule:evenodd"/><polygon points="1814.56 958.39 1644.65 959.39 1642.34 979.23 1814.88 978.2 1814.56 958.39" style="fill-rule:evenodd"/><polygon points="1726.46 1050.76 1538.32 1050.76 1573.64 1145.35 1726.75 1145.35 1726.46 1050.76" style="fill:#fff;fill-rule:evenodd"/><path d="M1060.5,1253.94c-25.74-2.79-102.11,104.93-115.53,151.47-14.54,100.33,251.45,87.36,230.62-4.89C1164.65,1352.13,1085.63,1256.67,1060.5,1253.94Z" transform="translate(-93.67 -198.15)" style="fill:red;fill-rule:evenodd"/><path d="M1030,1271.41c-25.73-2.8-102.1,104.93-115.52,151.47-14.54,100.34,251.45,87.36,230.61-4.89C1134.15,1369.6,1055.13,1274.14,1030,1271.41Z" transform="translate(-93.67 -198.15)" style="fill-rule:evenodd"/><path d="M1043.34,1266.65c-25.74-2.8-102.11,104.93-115.53,151.47-14.54,100.33,251.45,87.36,230.62-4.9C1147.49,1364.84,1068.47,1269.38,1043.34,1266.65Z" transform="translate(-93.67 -198.15)" style="fill:aqua;fill-rule:evenodd"/><rect x="1744.68" y="662.22" width="58.62" height="58.62"/><rect x="1437.95" y="385.82" width="36.13" height="36.13" style="fill:aqua"/><rect x="1491.22" y="1095.99" width="36.12" height="36.12" style="fill:red"/><polygon points="84.04 627.1 340.33 627.1 292.21 588.93 83.64 588.93 84.04 627.1" style="fill:#fff;fill-rule:evenodd"/><polygon points="141.73 1176.59 430.13 1174.88 381.94 1151.05 147.01 1152.45 141.73 1176.59" style="fill:#fff;fill-rule:evenodd"/><path d="M204.09,746.16l-.35-112.8H418.26l42.13,112.8Zm-.39-124.89v-4h4.07Z" transform="translate(-93.67 -198.15)" style="fill:#fff;fill-rule:evenodd"/><rect y="758.15" width="58.62" height="58.62"/><rect x="357.96" y="1109.92" width="36.12" height="36.12" style="fill:aqua"/><rect x="127.19" y="701.75" width="36.12" height="36.13" style="fill:red"/><polygon points="86.86 520.02 256.75 519.01 259.08 499.18 86.53 500.2 86.86 520.02" style="fill-rule:evenodd"/><rect x="12.67" y="589.97" width="36.13" height="36.13" style="fill:#fff"/><polygon points="1453.18 740.39 1515.16 797.47 1529.27 784.18 1466.32 726.22 1453.18 740.39" style="fill:#fff;fill-rule:evenodd"/><rect x="198.35" y="310.91" width="91.89" height="37.1" style="fill:#fff"/><polygon points="1094.52 1163.35 1010.26 1164.33 1009.11 1183.67 1094.68 1182.68 1094.52 1163.35" style="fill:#fff;fill-rule:evenodd"/><polygon points="937.21 1109.41 852.96 1110.39 851.81 1129.73 937.38 1128.73 937.21 1109.41" style="fill:aqua;fill-rule:evenodd"/><polygon points="855.84 1212.19 771.58 1213.17 770.44 1232.52 856 1231.52 855.84 1212.19" style="fill:#fff;fill-rule:evenodd"/><rect x="961.51" y="1213.23" width="28.15" height="28.15" style="fill:#fff"/><rect x="609.33" y="574.85" width="28" height="28"/><rect x="1235.14" y="908.15" width="28.15" height="28.15" transform="translate(-379.89 955.3) rotate(-45)" style="fill:red"/><rect x="652.39" y="1212.86" width="28.15" height="28.15" transform="translate(-766.04 632.47) rotate(-45)" style="fill:red"/><circle cx="1307.15" cy="1376.49" r="33.62" transform="translate(-200.81 2444.5) rotate(-88.32)" style="fill:red"/><path d="M1293.91,1353.83a33.62,33.62,0,1,0,33.62,33.62A33.62,33.62,0,0,0,1293.91,1353.83Z" transform="translate(-93.67 -198.15)" style="fill-rule:evenodd"/><path d="M1300,1349.73a33.62,33.62,0,1,0,33.62,33.62A33.62,33.62,0,0,0,1300,1349.73Z" transform="translate(-93.67 -198.15)" style="fill:aqua;fill-rule:evenodd"/><circle cx="810.88" cy="1366.55" r="33.62" transform="translate(-356.57 -2.91) rotate(-11.83)" style="fill:red"/><path d="M797.64,1343.88a33.62,33.62,0,1,0,33.62,33.62A33.63,33.63,0,0,0,797.64,1343.88Z" transform="translate(-93.67 -198.15)" style="fill-rule:evenodd"/><path d="M803.75,1339.78a33.62,33.62,0,1,0,33.62,33.63A33.63,33.63,0,0,0,803.75,1339.78Z" transform="translate(-93.67 -198.15)" style="fill:aqua;fill-rule:evenodd"/><rect x="1277.24" y="211.42" width="30.9" height="30.9" style="fill:aqua"/><rect x="852.33" y="467.21" width="30.9" height="15.02" style="fill:aqua"/><rect x="1221.88" y="211.41" width="30.9" height="30.9" style="fill:aqua"/><rect x="796.97" y="467.21" width="30.9" height="15.02" style="fill:aqua"/><rect x="1181.97" y="211.41" width="15.45" height="30.9" style="fill:aqua"/><rect x="757.06" y="467.21" width="15.45" height="15.02" style="fill:aqua"/><rect x="1127.05" y="211.41" width="15.01" height="30.9" style="fill:aqua"/><rect x="702.14" y="467.21" width="15.01" height="15.02" style="fill:aqua"/><rect x="429.38" y="301.43" width="646.96" height="6.3" style="fill:aqua"/><rect x="523.9" y="346.59" width="646.96" height="6.3" style="fill:aqua"/><rect x="708.74" y="1363.24" width="241.56" height="6.3" style="fill:aqua"/><rect x="1079.86" y="1388.37" width="77.8" height="12.76" style="fill:aqua"/><rect x="940.48" y="1388.37" width="77.8" height="12.76" style="fill:aqua"/><rect x="839.99" y="1388.37" width="38.9" height="12.76" style="fill:aqua"/><rect x="701.71" y="1388.37" width="37.79" height="12.76" style="fill:aqua"/><path d="M563,1000V983h17v17H563m89-100h7.1q31.73,0,48.32,21.89T724,987v12.91q0,8.45-.62,16.08H688v17h33v17H699.35a67.9,67.9,0,0,1-8.76,15.86Q673.91,1088,642.83,1088H618v-54H601v-17h34V917H613V900h39m7-55H563v155h17v17H529v17h17v109h98q38.67-.2,70.07-18.51a126.52,126.52,0,0,0,48.69-50.74,141.62,141.62,0,0,0,9.72-23.75H816v-16H761v-17h36.3q.71-8,.7-16.3v-14q-.19-40.63-18-73.4a126.25,126.25,0,0,0-49.37-50.7q-31.62-18-71.24-18h0" transform="translate(-93.67 -198.15)"/><polygon points="541.33 889.85 541.33 889.4 541.33 834.85 524.33 834.85 524.33 889.85 541.33 889.85"/><polygon points="541.33 817.85 558.33 817.85 558.33 718.63 558.33 702.37 558.33 701.85 519.33 701.85 519.33 718.85 541.33 718.85 541.33 817.85"/><rect x="507.33" y="818.85" width="17" height="17"/><path d="M773.71,1050a141.62,141.62,0,0,1-9.72,23.75,126.46,126.46,0,0,1-48.69,50.74q-31.39,18.32-70.07,18.51h17.19q38.55-.2,69.86-18.45A126.17,126.17,0,0,0,780.81,1074c1.19-2.25,2-4.68,3.07-7H800v-17H773.71Z" transform="translate(-93.67 -198.15)"/><path d="M815,986.94q-.19-40.61-17.66-73.33T748.82,863q-31.07-17.94-70-18H660q39.45,0,70.93,18a125.87,125.87,0,0,1,49.17,50.71q17.7,32.77,17.9,73.42v13.77q0,8.24-.69,16.13H834v-17H815Z" transform="translate(-93.67 -198.15)"/><rect x="667.33" y="818.85" width="17" height="17"/><path d="M659.12,900H652v.52q25.11,2.85,39.28,21.43,16.72,22,16.72,65.3v13.24s-.83,11-1.24,15.51h16.81a122.85,122.85,0,0,0,.43-15.51V987.55c.2-28.88-5.33-50.64-16.42-65.3S659.12,900,659.12,900Z" transform="translate(-93.67 -198.15)"/><rect x="418.33" y="818.85" width="17" height="17"/><polygon points="452.33 663.85 452.33 801.85 469.33 801.85 486.33 801.85 486.33 784.85 469.33 784.85 469.33 646.85 459.87 646.85 452.33 646.85 439.1 646.85 418.33 646.85 418.33 663.85 439.1 663.85 452.33 663.85"/><rect x="577.33" y="818.85" width="17" height="17"/><path d="M674,1066q-14.22,19.11-39,21.86v.15h8.25q31.08,0,47.77-22.14a68.27,68.27,0,0,0,8.76-15.86H721v-17H687.58Q683.55,1053.1,674,1066Z" transform="translate(-93.67 -198.15)"/><polygon points="435.33 835.85 435.33 911.85 413.33 911.85 413.33 928.85 435.33 928.85 435.33 945.85 452.33 945.85 452.33 835.85 435.33 835.85"/><rect x="401.33" y="679.85" width="17" height="17"/><path d="M558,1010V993h17v17H558m89-100h8.1q31.73,0,48.32,21.89T720,997v12.91q0,8.45-.62,16.08H684v17h33v17H695.35a67.9,67.9,0,0,1-8.76,15.86Q669.91,1098,638.83,1098H614v-55H597v-17h34V927H609V910h38m8-56H558v155h17v17H525v17h17v110h98q38.67-.2,70.07-18.51a126.52,126.52,0,0,0,48.69-50.74,141.62,141.62,0,0,0,9.72-23.75H812v-17H757v-17h36.3q.71-8,.7-16.3V996.45q-.19-40.65-18-73.4a126.13,126.13,0,0,0-49.37-50.7q-31.62-18-71.24-18h0" transform="translate(-93.67 -198.15)" style="fill:red"/><polygon points="537.33 899.85 537.33 899.4 537.33 844.85 520.33 844.85 520.33 899.85 537.33 899.85" style="fill:red"/><polygon points="537.33 828.85 554.33 828.85 554.33 728.77 554.33 712.38 554.33 711.85 515.33 711.85 515.33 728.85 537.33 728.85 537.33 828.85" style="fill:red"/><rect x="503.33" y="827.85" width="17" height="17" style="fill:red"/><path d="M768.43,1060a142.7,142.7,0,0,1-9.83,24,127.81,127.81,0,0,1-49.21,51.28q-31.74,18.51-70.82,18.71h17q39.06-.2,70.77-18.7a127.69,127.69,0,0,0,49.18-51.24c1.21-2.27,2-4.74,3.11-7.06H795v-17H768.43Z" transform="translate(-93.67 -198.15)" style="fill:red"/><path d="M810,995.94q-.19-40.61-17.66-73.33T743.82,872q-31.07-17.94-70-18H655q39.45,0,70.93,18a125.87,125.87,0,0,1,49.17,50.71q17.7,32.77,17.9,73.42v13.77q0,8.24-.69,16.13H829v-17H810Z" transform="translate(-93.67 -198.15)" style="fill:red"/><rect x="663.33" y="827.85" width="17" height="17" style="fill:red"/><path d="M654.23,910H647v.52q25.11,2.85,39.28,21.43,16.72,22,16.72,65.3v12.67c0,5.63-.22,11-.63,16.08h17c.41-5.09.63-10.45.63-16.08V997q0-43.2-16.8-65.12T654.23,910Z" transform="translate(-93.67 -198.15)" style="fill:red"/><rect x="414.33" y="827.85" width="17" height="17" style="fill:red"/><polygon points="448.33 672.85 448.33 811.85 465.33 811.85 482.33 811.85 482.33 794.85 465.33 794.85 465.33 656.85 455.87 656.85 448.33 656.85 435.1 656.85 414.33 656.85 414.33 672.85 435.1 672.85 448.33 672.85" style="fill:red"/><rect x="572.33" y="827.85" width="17" height="17" style="fill:red"/><path d="M670,1076q-14.22,19.11-39,21.86v.15h8.25q31.08,0,47.77-22.14a68.27,68.27,0,0,0,8.76-15.86H717v-17H683.58Q679.55,1063.1,670,1076Z" transform="translate(-93.67 -198.15)" style="fill:red"/><rect x="397.33" y="689.85" width="17" height="17" style="fill:red"/><path d="M565,1017v-17h17v17H565m89-100h7.1q31.73,0,48.32,21.89T726,1004v12.91q0,8.45-.62,16.08H690v17h33v17H701.35a67.9,67.9,0,0,1-8.76,15.86Q675.91,1105,644.83,1105H620v-55H603v-17h34V934H615V917h39m7-56H565v155h17v17H531v17h17v110h98q38.67-.2,70.07-18.51a126.52,126.52,0,0,0,48.69-50.74,141.62,141.62,0,0,0,9.72-23.75H819v-17H763v-17h36.3q.71-8,.7-16.3v-13.32q-.19-40.65-18-73.4a126.13,126.13,0,0,0-49.37-50.7q-31.62-18-71.24-18h0" transform="translate(-93.67 -198.15)" style="fill:aqua"/><polygon points="543.33 906.85 543.33 906.4 543.33 851.85 526.33 851.85 526.33 906.85 543.33 906.85" style="fill:aqua"/><rect x="509.33" y="834.85" width="17" height="17" style="fill:aqua"/><rect x="669.33" y="834.85" width="17" height="17" style="fill:aqua"/><path d="M661.23,917H654v.52q25.11,2.85,39.28,21.43,16.72,22,16.72,65.3v12.67c0,5.63-.22,11-.63,16.08h17c.41-5.09.63-10.45.63-16.08V1004q0-43.2-16.8-65.12T661.23,917Z" transform="translate(-93.67 -198.15)" style="fill:aqua"/><rect x="421.33" y="834.85" width="17" height="17" style="fill:aqua"/><polygon points="454.33 679.85 454.33 817.85 471.33 817.85 488.33 817.85 488.33 800.85 471.33 800.85 471.33 662.85 461.87 662.85 454.33 662.85 441.1 662.85 420.33 662.85 420.33 679.85 441.1 679.85 454.33 679.85" style="fill:aqua"/><rect x="579.33" y="834.85" width="17" height="17" style="fill:aqua"/><path d="M676,1083q-14.22,19.11-39,21.86v.15h8.25q31.08,0,47.77-22.14a68.27,68.27,0,0,0,8.76-15.86H723v-17H689.58Q685.55,1070.1,676,1083Z" transform="translate(-93.67 -198.15)" style="fill:aqua"/><rect x="404.33" y="696.85" width="17" height="17" style="fill:aqua"/><path d="M1410.23,925.7q11.19-8.51,30.49-8.51a62.68,62.68,0,0,1,8,.49q13.52,1.73,22.25,9.56,11.19,10.08,11.19,28.34h71.85q0-27.3-14.16-48.56t-39.72-32.76q-22.31-10-49.68-11.31c-2.68-.12-5.38-.19-8.13-.19-2.94,0-5.83.07-8.69.19q-27.9,1.23-50.87,10.39-26.47,10.57-41,29.57t-14.48,43.85c0,22.87,9.27,42.34,27.66,58.46a120.48,120.48,0,0,0,12.85,9.76q5.58,3.69,11.93,7.11h64.79v16.82h-43v16.78h42.83a63.74,63.74,0,0,1,9.56,6.06c7.44,5.88,11.19,14.09,11.19,24.64q0,14-10.37,21.65-8.13,6-20.85,7.34a72.74,72.74,0,0,1-7.39.36q-27.91,0-40.35-11.4t-12.42-35.41H1301.5a107.05,107.05,0,0,0,1.29,16.82,89.55,89.55,0,0,0,13.61,35.43q14.88,22.69,44.35,35.73,26.16,11.6,57.7,12.88,4,.17,8.11.17,4.44,0,8.71-.17,45.38-1.76,72.39-22.21,29.56-22.38,29.59-61.6a83.91,83.91,0,0,0-5.36-30.29H1506.1v-16.82h33.65A90.71,90.71,0,0,0,1524.3,1022a124,124,0,0,0-18.69-13.07q-19.93-11.49-50.92-21.46t-43.34-19.3Q1399,958.88,1399,947.36,1399,934.24,1410.23,925.7Z" transform="translate(-93.67 -198.15)"/><path d="M1531.89,1055.69a83.91,83.91,0,0,1,5.36,30.29q0,39.23-29.59,61.6-27,20.45-72.39,22.21,4,.17,8.11.17,51.55,0,81.1-22.38t29.59-61.6a92.44,92.44,0,0,0-1-13.47h20v-16.82h-41.25Z" transform="translate(-93.67 -198.15)"/><rect x="1412.44" y="840.72" width="16.82" height="16.82"/><path d="M1403,1104.34q-12.42-11.38-12.42-35.41h-16.83q0,24,12.42,35.41t40.35,11.4a72.74,72.74,0,0,0,7.39-.36,82.65,82.65,0,0,1-9.4-1.25Q1410.78,1111.46,1403,1104.34Z" transform="translate(-93.67 -198.15)"/><path d="M1556.71,907q-14.16-21.27-39.72-32.76t-57.8-11.5c-2.94,0-5.84.07-8.7.19q27.38,1.29,49.68,11.31,25.56,11.5,39.72,32.76t14.16,48.56H1590V938.76h-20.53A82.69,82.69,0,0,0,1556.71,907Z" transform="translate(-93.67 -198.15)"/><path d="M1411.35,968.21q12.32,9.35,43.34,19.3t50.92,21.46A124,124,0,0,1,1524.3,1022a90.71,90.71,0,0,1,15.45,16.83h16.81l-.24-.35V1022h-15.2a123.46,123.46,0,0,0-18.69-13.07q-19.93-11.49-50.93-21.46t-43.33-19.3q-12.32-9.33-12.32-20.85,0-13.12,11.2-21.66a38.77,38.77,0,0,1,13-6.31,54,54,0,0,1,8.73-1.71,62.68,62.68,0,0,0-8-.49q-19.29,0-30.49,8.51T1399,947.36Q1399,958.88,1411.35,968.21Z" transform="translate(-93.67 -198.15)"/><rect x="1479.47" y="823.9" width="16.82" height="16.82"/><rect x="1291.1" y="840.76" width="16.82" height="16.78"/><path d="M1448.76,917.68a54,54,0,0,0-8.73,1.71,37,37,0,0,1,14.16,7.85q11.19,10.08,11.19,28.34h16.82q0-18.26-11.19-28.34Q1462.28,919.41,1448.76,917.68Z" transform="translate(-93.67 -198.15)"/><path d="M1316.4,1121.18a89.55,89.55,0,0,1-13.61-35.43,107.05,107.05,0,0,1-1.29-16.82h-33.64v16.82H1286a89.55,89.55,0,0,0,13.61,35.43q14.88,22.69,44.35,35.73t65.81,13q4.44,0,8.71-.17-31.53-1.3-57.7-12.88Q1331.28,1143.88,1316.4,1121.18Z" transform="translate(-93.67 -198.15)"/><path d="M1454,1061.75a63.74,63.74,0,0,0-9.56-6.06h-16.83a63.89,63.89,0,0,1,9.57,6.06q11.16,8.82,11.18,24.64,0,14-10.36,21.65a36.88,36.88,0,0,1-13.43,6.09,82.65,82.65,0,0,0,9.4,1.25q12.73-1.29,20.85-7.34,10.37-7.68,10.37-21.65C1465.17,1075.84,1461.42,1067.63,1454,1061.75Z" transform="translate(-93.67 -198.15)"/><path d="M1362.91,1022l.08.05h16.82q-6.35-3.42-11.93-7.11a120.48,120.48,0,0,1-12.85-9.76c-18.39-16.12-27.66-35.59-27.66-58.46q0-24.84,14.48-43.85t41-29.57q23-9.15,50.87-10.39c-2.68-.12-5.39-.19-8.13-.19q-33.06,0-59.57,10.58t-41,29.57q-14.46,19-14.47,43.85c0,22.87,9.27,42.34,27.66,58.46h-20.79V1022h45.49Z" transform="translate(-93.67 -198.15)"/><rect x="1206.93" y="823.9" width="16.82" height="16.82"/><rect x="1240.57" y="840.72" width="16.82" height="16.82"/><path d="M1412.5,934.37q11.18-8.5,30.49-8.52a64.5,64.5,0,0,1,8,.49q13.53,1.74,22.26,9.57,11.19,10.08,11.18,28.33h71.85q0-27.3-14.15-48.55t-39.73-32.76q-22.31-10-49.68-11.31-4-.2-8.12-.19-4.41,0-8.7.19-27.9,1.23-50.87,10.39-26.46,10.57-41,29.57t-14.47,43.85q0,34.3,27.65,58.46a120.11,120.11,0,0,0,12.85,9.75q5.59,3.7,11.93,7.11h64.79v16.82h-43v16.78h42.83a64,64,0,0,1,9.56,6.07c7.44,5.88,11.19,14.09,11.19,24.64q0,14-10.37,21.65-8.13,6-20.85,7.34a72.74,72.74,0,0,1-7.39.36q-27.91,0-40.34-11.4t-12.42-35.42h-72.3a106.85,106.85,0,0,0,1.3,16.82,89.33,89.33,0,0,0,13.6,35.43q14.89,22.71,44.36,35.74,26.14,11.58,57.7,12.88,4,.16,8.1.16,4.44,0,8.72-.16,45.38-1.77,72.39-22.21,29.57-22.38,29.58-61.6a84.22,84.22,0,0,0-5.35-30.3h-25.79v-16.82H1542a91.27,91.27,0,0,0-15.44-16.82,123.6,123.6,0,0,0-18.7-13.08q-19.93-11.48-50.92-21.45t-43.34-19.3q-12.31-9.35-12.32-20.86Q1401.29,942.91,1412.5,934.37Z" transform="translate(-93.67 -198.15)" style="fill:aqua"/><rect x="1414.7" y="849.39" width="16.82" height="16.82" style="fill:aqua"/><path d="M1405.3,1113q-12.42-11.38-12.42-35.42h-16.82q0,24,12.42,35.42t40.34,11.4a72.74,72.74,0,0,0,7.39-.36,87.76,87.76,0,0,1-9.4-1.25Q1413,1120.12,1405.3,1113Z" transform="translate(-93.67 -198.15)" style="fill:aqua"/><path d="M1559,915.69q-14.16-21.27-39.71-32.76t-57.81-11.5q-4.41,0-8.7.19,27.38,1.29,49.68,11.31,25.56,11.51,39.73,32.76t14.15,48.55h35.92V947.42h-20.54A82.33,82.33,0,0,0,1559,915.69Z" transform="translate(-93.67 -198.15)" style="fill:aqua"/><path d="M1413.61,976.88q12.32,9.35,43.34,19.3t50.92,21.45a123.6,123.6,0,0,1,18.7,13.08,91.27,91.27,0,0,1,15.44,16.82h16.82l-.25-.35v-16.47h-15.19a123.6,123.6,0,0,0-18.7-13.08q-19.92-11.48-50.92-21.45t-43.34-19.3q-12.32-9.35-12.32-20.86,0-13.11,11.21-21.65a38.74,38.74,0,0,1,13-6.32,56.71,56.71,0,0,1,8.73-1.71,64.5,64.5,0,0,0-8-.49q-19.31,0-30.49,8.52T1401.29,956Q1401.29,967.54,1413.61,976.88Z" transform="translate(-93.67 -198.15)" style="fill:aqua"/><rect x="1481.74" y="832.56" width="16.82" height="16.82" style="fill:aqua"/><rect x="1293.37" y="849.43" width="16.82" height="16.78" style="fill:aqua"/><path d="M1451,926.34a56.71,56.71,0,0,0-8.73,1.71,37,37,0,0,1,14.16,7.86q11.19,10.08,11.19,28.33h16.82q0-18.25-11.18-28.33Q1464.54,928.07,1451,926.34Z" transform="translate(-93.67 -198.15)" style="fill:aqua"/><path d="M1318.66,1129.84a89.33,89.33,0,0,1-13.6-35.43,106.85,106.85,0,0,1-1.3-16.82h-33.64v16.82h18.12a89.33,89.33,0,0,0,13.6,35.43q14.88,22.71,44.35,35.74t65.82,13c3,0,5.86,0,8.71-.16q-31.54-1.31-57.7-12.88Q1333.54,1152.55,1318.66,1129.84Z" transform="translate(-93.67 -198.15)" style="fill:aqua"/><path d="M1456.24,1070.42a64,64,0,0,0-9.56-6.07h-16.82a64.53,64.53,0,0,1,9.56,6.07c7.44,5.88,11.19,14.09,11.19,24.64q0,14-10.37,21.65a37.06,37.06,0,0,1-13.43,6.09,87.76,87.76,0,0,0,9.4,1.25q12.74-1.3,20.85-7.34,10.38-7.7,10.37-21.65C1467.43,1084.51,1463.68,1076.3,1456.24,1070.42Z" transform="translate(-93.67 -198.15)" style="fill:aqua"/><path d="M1365.17,1030.71l.08,0h16.82q-6.35-3.4-11.93-7.11a120.11,120.11,0,0,1-12.85-9.75q-27.58-24.18-27.65-58.46,0-24.84,14.47-43.85t41-29.57q23-9.16,50.87-10.39-4-.2-8.13-.19-33.06,0-59.56,10.58t-41,29.57q-14.47,19-14.48,43.85c0,22.87,9.27,42.34,27.66,58.46h-20.79v16.82h45.49Z" transform="translate(-93.67 -198.15)" style="fill:aqua"/><rect x="1209.19" y="832.56" width="16.82" height="16.82" style="fill:aqua"/><rect x="1242.84" y="849.39" width="16.82" height="16.82" style="fill:aqua"/><path d="M1417.53,935.68q11.19-8.5,30.49-8.51a62.68,62.68,0,0,1,8,.49q13.53,1.73,22.25,9.56,11.19,10.08,11.19,28.34h71.85q0-27.3-14.16-48.56t-39.72-32.75q-22.31-10-49.68-11.31-4-.2-8.13-.19-4.4,0-8.69.19-27.9,1.21-50.87,10.39-26.47,10.57-40.95,29.56t-14.48,43.85c0,22.88,9.27,42.35,27.66,58.47a119.12,119.12,0,0,0,12.85,9.75q5.58,3.69,11.93,7.11h64.79v16.82h-43v16.78h42.83a64.55,64.55,0,0,1,9.56,6.06c7.44,5.88,11.19,14.09,11.19,24.64q0,14-10.37,21.65-8.13,6-20.85,7.35a72.74,72.74,0,0,1-7.39.36q-27.91,0-40.35-11.4t-12.41-35.42h-72.3a107,107,0,0,0,1.29,16.82,89.49,89.49,0,0,0,13.61,35.43q14.88,22.71,44.35,35.73,26.16,11.59,57.7,12.88,4,.17,8.11.17,4.44,0,8.71-.17,45.38-1.76,72.39-22.21,29.57-22.36,29.59-61.6a84,84,0,0,0-5.36-30.29H1513.4v-16.82h33.65A91,91,0,0,0,1531.6,1032a124,124,0,0,0-18.69-13.08Q1493,1007.47,1462,997.49t-43.34-19.29q-12.33-9.35-12.32-20.86Q1406.33,944.22,1417.53,935.68Z" transform="translate(-93.67 -198.15)" style="fill:red"/><rect x="1419.74" y="850.7" width="16.82" height="16.82" style="fill:red"/><path d="M1410.34,1114.33q-12.42-11.38-12.42-35.42H1381.1q0,24,12.41,35.42t40.35,11.4a72.74,72.74,0,0,0,7.39-.36,85.22,85.22,0,0,1-9.4-1.26Q1418.08,1121.44,1410.34,1114.33Z" transform="translate(-93.67 -198.15)" style="fill:red"/><rect x="1298.4" y="850.75" width="16.82" height="16.78" style="fill:red"/><path d="M1456.06,927.66a55.09,55.09,0,0,0-8.73,1.71,37.29,37.29,0,0,1,14.16,7.85q11.19,10.08,11.19,28.34h16.82q0-18.25-11.19-28.34Q1469.58,929.39,1456.06,927.66Z" transform="translate(-93.67 -198.15)" style="fill:red"/><path d="M1323.7,1131.16a89.49,89.49,0,0,1-13.61-35.43,107,107,0,0,1-1.29-16.82h-33.64v16.82h18.11a89.49,89.49,0,0,0,13.61,35.43q14.88,22.71,44.35,35.73t65.81,13q4.44,0,8.71-.17-31.53-1.3-57.7-12.88Q1338.59,1153.87,1323.7,1131.16Z" transform="translate(-93.67 -198.15)" style="fill:red"/><path d="M1461.28,1071.73a64.55,64.55,0,0,0-9.56-6.06h-16.83a64.18,64.18,0,0,1,9.57,6.06q11.16,8.82,11.18,24.64,0,14-10.36,21.65a36.8,36.8,0,0,1-13.43,6.09,85.22,85.22,0,0,0,9.4,1.26q12.74-1.3,20.85-7.35,10.38-7.68,10.37-21.65C1472.47,1085.82,1468.72,1077.61,1461.28,1071.73Z" transform="translate(-93.67 -198.15)" style="fill:red"/><path d="M1370.21,1032l.08,0h16.82q-6.34-3.42-11.93-7.11a119.12,119.12,0,0,1-12.85-9.75c-18.39-16.12-27.66-35.59-27.66-58.47q0-24.84,14.48-43.85t40.95-29.56q23-9.17,50.87-10.39-4-.2-8.13-.19-33.06,0-59.57,10.58t-41,29.56q-14.46,19-14.47,43.85c0,22.88,9.27,42.35,27.66,58.47h-20.79V1032h45.49Z" transform="translate(-93.67 -198.15)" style="fill:red"/><rect x="1214.23" y="833.88" width="16.82" height="16.82" style="fill:red"/><rect x="1409.04" y="948.02" width="28.15" height="28.15"/><polygon points="691.17 904.85 608.27 905.82 607.14 924.85 691.33 923.88 691.17 904.85" style="fill:#fff;fill-rule:evenodd"/><polygon points="1285.46 755.94 1201.2 756.91 1200.05 776.26 1285.62 775.27 1285.46 755.94" style="fill:#fff;fill-rule:evenodd"/><polygon points="1259.88 931.43 1201 991.7 1213.87 1006.19 1273.66 944.98 1259.88 931.43" style="fill:#fff;fill-rule:evenodd"/><polygon points="503.17 736.85 420.27 737.82 419.14 756.85 503.33 755.88 503.17 736.85" style="fill:#fff;fill-rule:evenodd"/><polygon points="466.61 418.07 275.02 419.23 272.4 442.14 466.97 440.96 466.61 418.07" style="fill:#fff;fill-rule:evenodd"/><polygon points="342.98 406.9 533.77 406.9 533.77 368.73 342.58 368.73 342.98 406.9" style="fill:red;fill-rule:evenodd"/></svg>