<svg xmlns="http://www.w3.org/2000/svg" viewBox="0 0 1630.19 1629.52"><title>DSX-X</title><path d="M1771.86,1567.07a15.82,15.82,0,0,1,0,22.33L1579.1,1782.16a15.81,15.81,0,0,1-22.32,0L978.9,1204.29,401,1782.16a15.81,15.81,0,0,1-22.32,0L185.93,1589.4a15.86,15.86,0,0,1,0-22.33L763.82,989.2,185.93,411.32a15.86,15.86,0,0,1,0-22.33L378.71,196.23a15.83,15.83,0,0,1,22.32,0L978.9,774.1l577.88-577.87a15.83,15.83,0,0,1,22.32,0L1771.86,389a15.82,15.82,0,0,1,0,22.33L1194,989.2Z" transform="translate(-181.33 -191.62)" style="fill:#13ca91;fill-rule:evenodd"/><path d="M1779.86,1580.45a15.81,15.81,0,0,1,0,22.32L1587.1,1795.53a15.81,15.81,0,0,1-22.32,0L986.9,1217.66,409,1795.53a15.81,15.81,0,0,1-22.32,0L193.93,1602.77a15.84,15.84,0,0,1,0-22.32l577.89-577.88L193.93,424.69a15.84,15.84,0,0,1,0-22.32L386.71,209.6a15.83,15.83,0,0,1,22.32,0L986.9,787.47,1564.78,209.6a15.83,15.83,0,0,1,22.32,0l192.76,192.77a15.81,15.81,0,0,1,0,22.32L1202,1002.57Z" transform="translate(-181.33 -191.62)" style="fill:#e847ae;fill-rule:evenodd"/><path d="M1795,1587.45a15.83,15.83,0,0,1,0,22.32l-192.77,192.76a15.81,15.81,0,0,1-22.32,0l-577.87-577.87L424.2,1802.53a15.82,15.82,0,0,1-22.33,0L209.09,1609.77a15.84,15.84,0,0,1,0-22.32L787,1009.57,209.09,431.69a15.84,15.84,0,0,1,0-22.32L401.87,216.6a15.84,15.84,0,0,1,22.33,0l577.87,577.87L1579.94,216.6a15.83,15.83,0,0,1,22.32,0L1795,409.37a15.83,15.83,0,0,1,0,22.32l-577.87,577.88Z" transform="translate(-181.33 -191.62)" style="fill:#ff9472;fill-rule:evenodd"/><path d="M1806.91,1601.45a15.83,15.83,0,0,1,0,22.32l-192.76,192.76a15.82,15.82,0,0,1-22.33,0L1014,1238.66,436.08,1816.53a15.81,15.81,0,0,1-22.32,0L221,1623.77a15.84,15.84,0,0,1,0-22.32l577.88-577.88L221,445.69a15.84,15.84,0,0,1,0-22.32L413.76,230.6a15.83,15.83,0,0,1,22.32,0L1014,808.47,1591.82,230.6a15.84,15.84,0,0,1,22.33,0l192.76,192.77a15.83,15.83,0,0,1,0,22.32L1229,1023.57Z" transform="translate(-181.33 -191.62)" style="fill-rule:evenodd"/></svg>